<mxfile host="app.diagrams.net" agent="Mozilla/5.0 (Windows NT 10.0; Win64; x64) AppleWebKit/537.36 (KHTML, like Gecko) Chrome/132.0.0.0 Safari/537.36" version="26.2.14">
  <diagram name="第 1 页" id="ETLuxaafmcK_fALj8qVm">
    <mxGraphModel dx="1042" dy="527" grid="1" gridSize="10" guides="1" tooltips="1" connect="1" arrows="1" fold="1" page="1" pageScale="1" pageWidth="1827" pageHeight="1169" background="none" math="0" shadow="0">
      <root>
        <mxCell id="0" />
        <mxCell id="1" parent="0" />
        <mxCell id="9l4Qxd2OkfuQ6Kxrnip4-4" value="Chat box" style="swimlane;whiteSpace=wrap;html=1;" parent="1" vertex="1">
          <mxGeometry x="349" y="340" width="200" height="220" as="geometry" />
        </mxCell>
        <mxCell id="9l4Qxd2OkfuQ6Kxrnip4-2" value="Query" style="shape=callout;whiteSpace=wrap;html=1;perimeter=calloutPerimeter;size=20;position=0.57;position2=1;base=20;" parent="9l4Qxd2OkfuQ6Kxrnip4-4" vertex="1">
          <mxGeometry x="110" y="50" width="70" height="60" as="geometry" />
        </mxCell>
        <mxCell id="9l4Qxd2OkfuQ6Kxrnip4-1" value="Response" style="shape=callout;whiteSpace=wrap;html=1;perimeter=calloutPerimeter;size=20;position=0.14;position2=0;" parent="9l4Qxd2OkfuQ6Kxrnip4-4" vertex="1">
          <mxGeometry x="20" y="120" width="70" height="60" as="geometry" />
        </mxCell>
        <mxCell id="9l4Qxd2OkfuQ6Kxrnip4-8" value="" style="swimlane;startSize=0;dashed=1;" parent="1" vertex="1">
          <mxGeometry x="650" y="230" width="780" height="620" as="geometry">
            <mxRectangle x="650" y="230" width="50" height="40" as="alternateBounds" />
          </mxGeometry>
        </mxCell>
        <mxCell id="OEbAICJhkx0JvxfDaXoY-10" value="LLM" style="swimlane;whiteSpace=wrap;html=1;rounded=1;glass=0;" parent="9l4Qxd2OkfuQ6Kxrnip4-8" vertex="1">
          <mxGeometry x="300" y="400" width="90" height="190" as="geometry" />
        </mxCell>
        <mxCell id="9l4Qxd2OkfuQ6Kxrnip4-129" value="" style="sketch=0;outlineConnect=0;fontColor=#232F3E;gradientColor=none;fillColor=#01A88D;strokeColor=none;dashed=0;verticalLabelPosition=bottom;verticalAlign=top;align=center;html=1;fontSize=12;fontStyle=0;aspect=fixed;pointerEvents=1;shape=mxgraph.aws4.sagemaker_model;" parent="OEbAICJhkx0JvxfDaXoY-10" vertex="1">
          <mxGeometry x="18" y="30" width="50" height="50" as="geometry" />
        </mxCell>
        <mxCell id="9l4Qxd2OkfuQ6Kxrnip4-137" style="edgeStyle=orthogonalEdgeStyle;rounded=0;orthogonalLoop=1;jettySize=auto;html=1;" parent="OEbAICJhkx0JvxfDaXoY-10" source="9l4Qxd2OkfuQ6Kxrnip4-135" target="9l4Qxd2OkfuQ6Kxrnip4-129" edge="1">
          <mxGeometry relative="1" as="geometry" />
        </mxCell>
        <mxCell id="9l4Qxd2OkfuQ6Kxrnip4-135" value="" style="sketch=0;outlineConnect=0;fontColor=#232F3E;gradientColor=none;fillColor=#01A88D;strokeColor=none;dashed=0;verticalLabelPosition=bottom;verticalAlign=top;align=center;html=1;fontSize=12;fontStyle=0;aspect=fixed;pointerEvents=1;shape=mxgraph.aws4.sagemaker_train;" parent="OEbAICJhkx0JvxfDaXoY-10" vertex="1">
          <mxGeometry x="16" y="130" width="54" height="45" as="geometry" />
        </mxCell>
        <mxCell id="9l4Qxd2OkfuQ6Kxrnip4-13" style="edgeStyle=orthogonalEdgeStyle;rounded=0;orthogonalLoop=1;jettySize=auto;html=1;exitX=0.5;exitY=1;exitDx=0;exitDy=0;entryX=1;entryY=0.5;entryDx=0;entryDy=0;" parent="9l4Qxd2OkfuQ6Kxrnip4-8" source="OEbAICJhkx0JvxfDaXoY-1" target="OEbAICJhkx0JvxfDaXoY-10" edge="1">
          <mxGeometry relative="1" as="geometry" />
        </mxCell>
        <mxCell id="OEbAICJhkx0JvxfDaXoY-1" value="Prompt" style="swimlane;whiteSpace=wrap;html=1;rounded=1;glass=0;" parent="9l4Qxd2OkfuQ6Kxrnip4-8" vertex="1">
          <mxGeometry x="599" y="35" width="170" height="250" as="geometry" />
        </mxCell>
        <mxCell id="OEbAICJhkx0JvxfDaXoY-2" value="Context&amp;nbsp; &amp;nbsp;" style="strokeWidth=2;html=1;shape=mxgraph.flowchart.multi-document;whiteSpace=wrap;" parent="OEbAICJhkx0JvxfDaXoY-1" vertex="1">
          <mxGeometry x="40" y="180" width="88" height="60" as="geometry" />
        </mxCell>
        <mxCell id="OEbAICJhkx0JvxfDaXoY-3" value="Query" style="rounded=1;whiteSpace=wrap;html=1;" parent="OEbAICJhkx0JvxfDaXoY-1" vertex="1">
          <mxGeometry x="28" y="130" width="100" height="30" as="geometry" />
        </mxCell>
        <mxCell id="OEbAICJhkx0JvxfDaXoY-5" value="" style="endArrow=none;html=1;rounded=0;strokeWidth=3;" parent="OEbAICJhkx0JvxfDaXoY-1" edge="1">
          <mxGeometry width="50" height="50" relative="1" as="geometry">
            <mxPoint x="14" y="60" as="sourcePoint" />
            <mxPoint x="134" y="60" as="targetPoint" />
          </mxGeometry>
        </mxCell>
        <mxCell id="OEbAICJhkx0JvxfDaXoY-6" value="" style="endArrow=none;html=1;rounded=0;strokeWidth=3;" parent="OEbAICJhkx0JvxfDaXoY-1" edge="1">
          <mxGeometry width="50" height="50" relative="1" as="geometry">
            <mxPoint x="14" y="80" as="sourcePoint" />
            <mxPoint x="134" y="80" as="targetPoint" />
          </mxGeometry>
        </mxCell>
        <mxCell id="OEbAICJhkx0JvxfDaXoY-7" value="" style="endArrow=none;html=1;rounded=0;strokeWidth=3;" parent="OEbAICJhkx0JvxfDaXoY-1" edge="1">
          <mxGeometry width="50" height="50" relative="1" as="geometry">
            <mxPoint x="14" y="100" as="sourcePoint" />
            <mxPoint x="80" y="100" as="targetPoint" />
          </mxGeometry>
        </mxCell>
        <mxCell id="9l4Qxd2OkfuQ6Kxrnip4-20" value="Vector database" style="swimlane;whiteSpace=wrap;html=1;rounded=1;glass=0;" parent="9l4Qxd2OkfuQ6Kxrnip4-8" vertex="1">
          <mxGeometry x="256" y="181.25" width="130" height="127.5" as="geometry" />
        </mxCell>
        <mxCell id="9l4Qxd2OkfuQ6Kxrnip4-103" value="" style="shape=image;verticalLabelPosition=bottom;labelBackgroundColor=default;verticalAlign=top;aspect=fixed;imageAspect=0;image=data:image/png,iVBORw0KGgoAAAANSUhEUgAAAQ4AAAElCAYAAAAV2gxQAAAAAXNSR0IArs4c6QAAAARnQU1BAACxjwv8YQUAAAAJcEhZcwAADsMAAA7DAcdvqGQAALOMSURBVHhe7L13nGXJWd/9rTrh5r6dw3RP3p3Nq11FhBIgAUKACCIZkMyr18ZgksE274tBgMH2SzAYk0SwMSBhkARYCEkIBYRQ1q60eWdndvJM59x94wlV7x91zr2nb9+O093TM9O/+Zy5t+8995yqOlW/eupJJbxAaXYBQoNY8YmKvohetVzx7X6DEtspn0IIAUIjtE7UfzvXuvUgxMoecbNB650bKjdzWwghbkCP1tFxgAMc4KbFLhBHzAytRwwRHbcWhG5KWaulrQPcbNBarzoO0MQBcewQ4lrdmrU7wAFWYheI4wAHOMCtjhtEHCK69Q26/Q5BaJDRcYAD3E64QSNXR1aWyMJyk0ILUNFxgAPcTtgF4oglidYjxs1PGO0QE4iK3h8IIQe4lbELxLEBGmYH1fTpuEmhI6lDH0gcB7jNsPfE0UCrteUmxi1SjQMcYLO4gcRx8+PAZ+MAtysOiOMABzjAlnFAHDuE2Cwro/cHUsgBbmUcEMcBDnCALeMGEYcw0bH7PEJ2I9wqDmBCCMIwRAjROOLPN3sc4PbC3o/chjHl5o/q0JG/xk3OGwRBgFYKr1ZDRe9Xk8HNXssD7CTEzufjMJdbbW2IbxO/tnbM/YWt5uMQGpOPQwpAI1YMtK1day+gI+9dgQQVEI5fYebRz6ItQe9LX4XTPQSWi9YCIRQQEloWdiiN34qpcPN6m4geXU1G+xebqc/14GZqi1YIIXaDOIxT12riuLmwVeIwuJkS+SjzgEIfvTjB1d/+Fcqf/BChbZF6xRu44/v/H2RxEG1JJAotfDzbwfUthAX6gDiuCzdTW7RC3JBEPrcQbupYFQ2h76FmrnHxN36R6qc/RlEJ+kKJ9elPcel3fw21OIHQHqFUaAGCEN8JCOXN7fF7gOvHAXHcjtAgdIgYO8f47/8q4nOfoVgro1UFUa/SWZrH//RHufD7/x/+3AW0LqMtgaMEbgiW0gc6j9scB8RxG0KFPmp5gfH/+ZvUv/AZUkEJQYClQ3zLI5ABeVWGL36c87/7y4iFCXRYB22bI+o2OgpYbFm1HOA2wC4QR2wtaT1iHMxWew+NFiEahfLriMmLXPnNX6D6xc9g+csEdoB0JTT0MyA9D2exhP7SE5z777+BmBpHiLpRXgUCERolsLl86zM+wK2OA+K4jSCUB5MXGX/H7xB8+sPkaiUgRdA5SL3QhR8CVgbVc4haZz/adsnXq/DEFzj/W/+ZYPR58GtR+oCIOESIFurgmd5m2AXiOMC+g9b45RJ6ZpRr7/gdap/4EE6tjBYWXnaEge/9UZxj9yDcDL6dwb7rbrp+8IepdPfghzXc6jT1Jz/J1d/7b4SLM6ADVMPrLQBZPyCO2wwHxHEduBk8R7XWhIGHvTDJxd/5JYJ//AgdlTrCsVnqPc7wT/y/ZB56KTUnh8KiTkiQcSm+/FUM/8BPUus5QoiNU6lQfvxzXPuDX4O5q8jqIgKBRiLUgcRxu+GAOG5R6GhFqIIQf2KU0bf/V9SjnyGtPeqOppTp4dAP/ntyL3opIp1GSwEotPDw7SpCpSh++dcx+NYfod57Alt3ka1WqX7277nw+79KOHsVVB2tU6BSiINsRrcVdoE44tSArUcMuTu3vcHYT9GxYeAjtECXNYyPMfuHv0zw2GfIBDWUm2Jx8AjHfvpnKb7ky9GOC7hY2sZG4GobJ8yDnUZbNl2v+hpG/vW/Zbm3iHAhE1QJH/0U5//nrxEsXCPwqoQW6JvYoekAW8etN4Jvc2ggsMFXFahMMPH7v0L42COkvCoCi6WeQY7+4I+SfeClaDcN0gJtIbVAao1UAqlt0BItJNrOkLvrIe748bexVOxEuxayukDt0c9y4dd/FXtuEuUvt0wOB7jVcUAc1wER6Tn2mx+DAGRphtN/+F+oPfEprHqZwHGZ6x9i8Lu/j9xDLydMdxEKy2gmImGhYQNL1EfYNnZHD/n7Xsbht/wYi8U+tONSrHqIL32Jy3/wm1heDaEPiON2wgFxXA/iLR9bP7+BEEBKW6iZaUpPPYoV1Kg5grmuXo784I/S9ZVfi5frIxAuiChgbU3VpkYLjXZsRKZI1yu/icPf+6OUCgME2iHr1fEunsOfW1jrAge4RXFAHLcitMLOdeP2n2Ip381c8RCnfuwnKb741eD2obWDFiqKkG2iXcyNlgFKKLR00KkcXa/5Ru58649RGryDUq4f0TWI29F90JVuM+xCdKzB6ujYWJSNX/d3R9tMdGy7OsZh9Sun4I2vtTMwbSsDBb6PqnvMXDhHR083qUODYDtoJCoSM0IpkNpHzs5w7dd+DvvRj+LZNrkvez19/+Y/ogqdjVxLgkTCHr8Oo7OUR6fInzxK2JNH2najFGthv0aE7nYkbDvs17bYDA6iY29RaEuA6yALWfoeuB93+BDado2yM7G0anTdeNy0HUBmMaZpRgNrJ4U4PET+ZS9Ad+Y2RRoHuLWw98QRa99EaI4D7BjiEP9QCpQl0baFsi2UJVFSmKWIEEYqksKYUIWRkEwkC2il152BRUQggS0IHEGYdiMfkAPcTth74riFEO/itvYw21tIDVKZAw1axcspsbb1R0TShNIobUjD6D604ZQWxBJL7LditZ5wgNsCB8RxnYhF+Fir0ard2EsILQxJNBYYkYTR+My8xpAASqNUSKjCiCwEvu+jlNGXxOdrrVdULiaOtmR0gFseB8SxQ0hKHzdKCtHCLD/MEUe7x8sRmaQTo89QiqXlJb74yU+xvLRkkhZrxeLCIme+9CW8ukcYhoRhgCVlRB6mZko2jwPcfjh47NeB/Z06MCl3rCyg1ppQKZ545mmmp6d5wcteSrHYiRQC3w/o6+vn+D33cPnqFZ559hlK5TJ+4K+r+zjA7YUD4rgO7N/oWAHauJKbQyKEIAgCarUaFy5c4ItffJTDh4a54+SduLk8OgyxpMS2LaQlSBU6uOOOOzh69BijV69x6dIlqtUqSqsDAjnAAXHckmgTqRoEAaOjo3zxi19kYGCAhx58iM6uroj9JNKykLKp6hQCpBDkC3nuvvtuBgYGePLJJxgfG8P3vAPyuM1xQBw7hNhqIeL3rSfsBWLFhhBooVFo/DBgdHycp55+hkwmy0MPP0wml8NNp8x5WkFsTdFxFlGjA1GAJS2EJcnnC7zoRS/GcRyefvppJiYmjBI1NLnAdgNxmZLHAfYHDohjh7C2RmEvYe4eBAFBEDC/sMC5cxeoVCvce9999PT1ks5mGl6LZg+YlV1AYxSgDQuRACklQgrclEt//wD33XcfpeUS58+fZ25ulsAPVlzjALc+DojjVoE2M7RSiiAMOXP2ecbHxjl85DB3nDwZDX6j60hiqyQnpCCdSnPixAmOHjnC6Ogop597jnq9jlJN/ceBdHBr44A4rgP7QTkqhECFilCF1Oo1zj5/lmvXRjl69Aj3338PmXQGpQVCSOMVmghNiv0w4nq0Q7KO8aG0RkpJOp3m/vvv5/DhES5cuMCzzz5LEBxIH7cD9og4bs1cDfvBHKuURgnNxNQU5y9eoLO7i5HDIw3CMCLFGqywCaxfNYGUFh0dRe69916Ghoa4cOEC165dw/O81pMPcAthF4ijNWVgRBqN2JTtd+L9jJhAVPR+o1omvTM3i+RSAA11z2NuYZ5HH/0iSMGpe+6ip78Xx3WQltXw/RJCIIRxIW9dqmyIhFQSe4laUbyLkM2IWa01XZ1d3HnnnViWxeOPP87U1BRhEBKGBzFJtxp2gTjaQGxtgNws0AnC2A62oweI9RjzC/OcOfMctXqNh17wAnr6+oweI7aoCEXYSt67gUTdDUEJ+nr7eOCBBwB4/InHqdVq26rrAfYv9oY4Npx/b1JskzA2i3imTkoJlUqFixcvsri4yMmTd9DX14edcpGJc0Skm9iVOJKWa64wPUdvbMcmm83S3d3N3XffzczMDFeuXGFhYQHf9xu/NSZW0Cv89RtfH2AfY4+I4wBbhjZmULRZovi+z9WrV7l69SqHDx/m6NGj5HI5LMtGt5ALsT9J8no7hOQ1Y9KISSuWOGLYtk0ul+PwyGF6e3u5evUqY2NjVCqVxlJNR2RhBJLdKvUBdhoHxLFfEekjgjBgamqK06dP093dzZ133onrulvXVewwtnJ3IQWZTIZ77rmHfD7P2bNnmZychLWWa20+2i20vf8BNsQuEIeMjuQMmIybaDluYqxnjt2UxSX5Oy3MlgRKoLVAhZqJiSkuX76K1oJ77rmXjkIRadtNzYXWCMCK0vo1Qt0Tl42fRrtjM9AYD1RF7FkaeXCqyFFsEx6dQgiklFiWRXd3Nw8+8CC27XLu+QtMT08ThEFj2RL9ArRAIFcdzbDf68Nmyn2AtbHZ/nOAPcTy0jKnn3uOMAw5cvgIAwP92JaD2iA7180CIQW9PT2cOHmcSqXC5cuXWS6VIn3HynPbfbZj0CaB0V5KOLcKDohjNxBJD41jFaLvkQSBiqQzjefXOfv8WZaWl7jrrlMMDQ5h23a0bol+ucYSRerVEkW7O28VSZtMu4l+u0pYy7KxLZvjx45y+PBhpqdneO65M/i+CaCLVR5KK8IwjEgzQSTbuOcBdg470bcOcB2QQuDVPS5evMz42ASDg4MM9PdHikYS/herwkr2FGsZdK9v5SAAies4nDh+lJGREa5eG+PKlWuUy+VG/lOljWm5sWQ64I0bjhvYFW9FrG8VaLp7a8IwJAgCFhYXuXT5Ct093YyMjNDZ2YHjOFGSv3iIKEAjWqb2+G7r33XnEJdmZwZu8ipGB9LRkeXYscPkchkmJyaZnZvF84z1RcS5UWOy2rFyHGA7OCCOHcU6w1ib74NA4XsBvu9x5swZXCfNnXeepKOjA9u2oulbIK0oG7kww8OQRnOYtJJGmzvuOFqJ47oGbcsaJzbHWtKit7eXY8ePohU8e/pZytUqSmmkbFZUR8phtWsKkAOshwPi2COY7q0pLS8zOjrG3Pw8d911F/lCpjGFrh4DRtJYMUSFijxxV52859A74Zca10fEKdlNvSxp0dvXw/3330e5UuHsueeZW1hEabNkad2F7gB7iwPi2BWIqGkFKlqeVCplLly8yPzCAoeGD9HfP4i0bGN2FAIpjU4DkvElJqpVbFK5sV1F5XqIa7JTytYtQQsc26Wnu5vDwyMsLi0yPjqOX6thCYE82FHshuGg3XcJsdnU83wmJycZHx/n8Mhhjh8/im3dPDuf7cUSaF1EiYQy2QzDwyMMDPTx/LnzjE9MoMJwTSvTAXYXB8Sxw/C8OlobF/GZ6Rnm5ubI5wqcOHESx3GAOJnOyiVI0tSoMVGwWovE58YxTMRHmyF9fRaOzeF69SlNSWr10TypGY5rtuJVSCFwLIntONx73z3kczmuXrvG+MQE9Xq9cW0i0t7IwUsIY+KOXw+wNRwQxw5Ca40QksWFBaamphBCMDgwQD6fN7k7hYk9ic7elp6iub3SjcH1EMfWpYO4jcwhACkFliXJZrOMDA8jgMnJSebm5gh8kzJxS8mEtlqkA8ABcewc4kC0559/Hs/3OXRoiJ6eHizLaqP0XI8A2px8gFWEJSI39sHBQYaGhqhUKly5egXP86I2X7sdN5JGDrAxDojjOmAkDFAq5OrVKywuLnDnnSfp7+/HsqzInGqUnRArPVeK6w0I3bQsrEDrkNltJO9v3idWDisg9khpGreAoBkbZElpoocBx3EYGRnh0KFDlMtlLl++jApV40iSRGMZo3TCs3cv2/fWwG4/81saQRAwPT3N6NgY/f399Pf1kUq5WLGFpN1oI0kSiWNfSBraGFdXlEnvie5kJ5BKpejt7aW/v5+JyQnm5ufwfJPCcIWEsR+a+ibHAXFsAVorBJogCFhcXGBiYoJsNsvwoWGy2SwIkwM01CFmV5IIKwjEDEaDMOEJsV96c0QeDQJJfJN4v1/naSEE2VyO4ZFh8oU845MTzC0uUPcDtIZAgRIStUkTdzsIYfxuwjBclQD6dsH2W+82gxFxYXZujrGxUVKpFENDg6TTaWwrsZyIZmqtY0JYyz2qlSwSA/ZGQsTEZspi/t3wUm0ZWghS6QwjIyO4jsulS5dYXF7eRwR9c+OWJo7Yu3AzSYF1NKPGcRCAMQVGS5JKpczU9BRaw+DgIK6bwrEdQyirmnEznXMz59xIbE630uCZ/QgBUlqk02nuOHmSIAiZnZ2NAujMlhLa2L+3ZMs2z9zkfr1d0drjby1oQx6b0qAnA6cEgCYIQyqVCrOzM8zPz9Pd1U13dxeO4yClREfh4aux2Q64ufP2FFGsTEId2XpGE1Gz7sNarEC8GVVnZyddXV0sLC4wNT1twvV1PPg3R5TQDFY8II5bGIKtO/horVFhyOzMLIuLC3R1dXP08GFSLUmBtw8TnHUQb7GXMFYsy7IZHBik2NHB7OwsszOziQRJ5nk0rC4HWBO3PHFsJG0oYdYkGpMbQyllYiImJsnlsgwNDeG6LqHGzEiJ2BGTK0Ov1E00zHvxbC2bJsA4PEvH59E4Z+VxI5EoR9skRLuPVabqBNb7LoYgYbZFRgfRIXCkRTadoa+vj2w2y+TUBHPzM4QqQCAafSbOB3KA1bgxPWOvsH7/aiCWMBaXFpmYmAANhw4Nkc3ld63jxGRygBsHS1pkc9mG383U1BSlculA2tgEbmniiD0z15qhYgVXpVplfGICgIGBforFYhSVSvS6cpZr/t3+ukTxJGslMo4h2G/JmqM6JR2jtIlAvVU6SqsDnhQSS0qKxSL9/f3UajXGJ8apVCsQ6TEOCH41bpX+sDZipWeLxURrTbVaZW5+jkqlTH9/H7lcrrEbWvzjtUjneiBEUxy+sYiWWQ2PVd1ChhuErcdtuvNNtGtY0RcaR0QiUtLV2UVfbx++7zM9YxSojR8eoIF1+8XNjgZJRNKFxriHe77H8vIyS0tL5LI5erp7or1Koll2G4jlj+Sx79HwDo10NO28XNfA5s/cPmLS3inrRUyNcY3j9/F3Qpisa27KpbOzk46ODhaXllhYXGyYblt/o7lZHvbO4pYlDo2ZTUyXM6bVuldnuVRiamqKTDbD4OAghVwOGYklySXJViWNm440wLSSiBW7G1NBkleSA2hXscM3iaWjpJSUJJNkH0in0/T29lIoFLh89SrL5TKhUoTa7MqrG+74N88T3wjJZdxaB7cycSShgFqtxvLyMrZjMzA0CNGSZEsh2LckkvPn1mb2+Bdb+9XWsdPLOhUtUeINsza8uhAcO3oUIQQzszNUq9XG9pVbnWBuFdySxBELlEopqtUqk+PjhGFIZ7FINmv2W7UsC600MjatJnZlW0+huVmI6JpbkP73HGbgS7QQKCE27A43UpchdkAvpKGR4mArz0VKCUJQyOfp7+3D9wMWFuap1apNU/sWrncrYP2ecpMiDEOqtRpLy0tUKmW6u3soFovYthPFkBxgZT+/gYywB9ipQa2MiEFXdxedXV0sLi6xsLCAH/g7d5ObBLcEcWgd7VMSBmg0pVKJwPfJptJ0FTvNbmihBqWQyIZ0sR6aM8nmjpsNRiYzymAB2LZDqBRBEJgEy4Hf1kvWSCm7ixVtmwgZ2Gp7a21ilJWAMN5KQWtEdA2hzCHj7GKtF2iju4rPExr6+3op5PMEnsfi4mKjXEEQ7MvI2VZdRbtjs2jXVjcfhNmPtFarMTMzQyqVIp/Pk8lkGqfIyGYfP/wDNEV3VanhByFCWmTSGYLAR1kWuo01Y/8Mg83B1LHFub9NJdbrE63EgY7fC+yozVLpFHNzc5TL5RaT/v7ATpfnpiWO5OxTq9WYn5/Hsiz6+/pJp9OgDfMLIdAq3jjwAA1oTRCElEolrp4/z+LiEpa0QAjK5QpnHn3USG4qjOJq2o63XUf79Io3HrFrutIK27bJZrP09PSAxixffLMD3a2Km5Y4lFbU6jXm5ufwfZ/u7m5SqZQRQRFIS5r0fTFxRA/5dicQHS3rtFacPn2aK1eu0n9ohI6OIrVaDbSmWOzg6L33MjYxzunTpymVy3iBn9g1TbY5dh5SyIZ3705jo6XqelBKmehorbFte8XyKZfPUSwWCcOQ2blZavXatpYC+x2788R3GVpryuUyYRjS0dFBR0dH23XvjXxQmrW9KtuVdSehIz1EGK/xE995nsfZs2d57IknOHL4CPfefS/p3l6ElDiuA4AQkM1kOHniJINDQ1y5coWLFy/iB/6ul30FWtpuv0ofrbAsi2w2S3d3N16k//A8r+mFegtgR4hDRINUKTOTGcvFznUwIUxofKhMINrC4gIdHR3k83mzV4k2s1PDtHoD2D0eoPGxUe2Ts9ROYc17a81yucy1sVGeefZZBgYGeOgFD1Hs6DC5Ueu+iZqJd4dXmGEqBF2dRU6dupNjR4/yxUcf48qVq4RhEFNjsx6N+JadR3yPvX6m1wtLWhTyBdLpNOVSmXK5jOd5xgfkJo+83dEnvVvtEIQBtVqNcrlMNpulkC/ADZYoNkLSwagddoM4YuiEk1O1XmNuYYEnnnwCx3F44IH7zT4vYvX83fq3gYnhsCyLl73kxXQWizz22GPMzs7t/QzavoD7GkIIbMumUCiQTqUpl8vUarUGEe5WH9ht7Ahx6MZAUJFAuXNPuF6vUyqVCMOQbDaL4zhYdjOqNLl+bEgaO3f7mwpG2jOSAKGiXCrz/NmzlMslXvLil9DT04uUlkl5GJkJRXxs0H+ltBCWTUexyAMPPMji4iLnz59nYWEBEfnGrIokXRVN1vwqee5OD54kKe/0tSF2CNv42o0+KY3OzXEdOjs7EUJQKpeoVEwE7s2IHSEOok6rVCROirg7bh2x8rJWq7GwuEAQBuRyOdLptHlgOqKmpLTR6P3tbxs/4J0ktP2IMLIelUslLl68wOVLl7jrzlMcGhpqKIqTqQYE0WBev/8nEhcJhJCkUimOHTvG0aNHmZyc4PyFi5TLpTbOdWs/GCEEgR/g+0FDdDfYoDCbxG76UMR9byPiiKvdmNCi32YyGbLZLFprlpeX8Tzvpgt92DHi2AlorVGhycDlBz7FYpFUKnVddvFY7yHjvBq3CHm0Dop48F27eo0LFy4wODTEXXfdhZtONQmdVeN3/c/ivVUTgyWGlBLXTXHy5B0MHRriwoWLnDt/nsAPTNnajqnmNaSUjI6O8Yu/8Es89eRzhGHMYM0ftr1EG8QShm7119jHsCzLEEgmi1f3KJVKO2I9Skpbu4kbTxxRX4rNq57vkc1myWQyaK0bpJFUfpKYUZJHW7QbFLcApCVRkaen1prR0VGeP3OGfDbL/ffdTy6bw3EcBMIs74TAEgIZic5CxmK0icOQiaWelIY1BFGiGxEn81HmaKTlE6Rsh3wmx7333U2xWODZ06e5dOlypO+KUysmEC1bwkAxPj7FtSsLnH7maoLYFErohm4ojnCOg9FivVF8hFqvsB6p6L2WAh2nqd+nEEJg2SYLWS6Xo1qtriCQJCFuBsnztvK77eDGE4eGWt1ErlqWheu61yVhtKIxY0aD5VYhkpgw5ufnefzxx3Fdl7vuuoue3l6ktXOZxTbVXAJs22ZoaIgHHrgf13X50pceY2JyEs9bLYJrbWI+XvySF/G2t/0k3/ytr010RdFe1tCJr1q5aI0BtovjZkchhMC2bTKZDI7jUCoZ/cd2JJC9stbsOXEIKaKkOppavUalWkFKSaFQwLHNtgPxzLeTaEglu9+mwMpo220jNnEmjjgjd+AHPPHEE5TLZR588EH6+/sjCWO1a9aOP+RV21c2Z0gpLA4dOsRDD72AMNA89dQzVComDD0eB1IaqcZxLI6d6CeddrAswwjGki9RocIPA8JQkU6nUEpFjmsRSSSkzLiv2NKkezTnBmi9x1af64QQAtd16ejowHVdqtUqvu/v+FjYCex4n1oPQgo8z6NWq1EqlaJ1smsUd60KzwOsgtaaWq3K6WdPMzY+xt13383hw4cbis8bieYsZxSoUlr09nZzzz13MTs7x+nTZ1ryWJgDS4EVoqVqJMXRWuMHPoEfUvc9KtVaQ2neTrKI4YcBvu8TRtIYK8p180Br3XAiE0JQLpf3nfJ0z4hDR3uuxj782WwW27ZXdXizsl7572aAaHOsh/U7dNPl1Aw0Rb1eZ2JigmvXRjl85DBHjxxt5EjdX2iuJVIpl0wmw8BAP0eOHObatatcuXqVaiOPBWgEGoGKDi0kvh/y1BNn+S//5bd4++++k7NnLxGGalVfSUIAttKo6Wm80Suo6Slktb53HXwXEPvPpFIpgiCgXq/vve/MGtj1dtXohgNXrVbDcRwymQyWZUUZplfPlvFSpXFsOAxvPLZCGmxEHDr2R1EoHTI3N8+TTz1JKpXizjvupKOjA9sxO8gll3bxcUMRZS8ySlFTFtd1KBRy3HHnSXp7enn66WeYmJik7nloJYgD22PymJld5A/+x3s4+9w0jz16gQ9+8B8JVAhr1FFEyltKZcT0BM7MBEyMo+bmEOu18z6HjpzEYt2fZVnUajWqVUO8rcvudm2zW9h14kAbn4w4grCxNGmt4N7U96aA1powVCwsLPHss6fxA5+HH36Yrq4uY1lQO5fAd9cgaNGFmGxr6Uyahx96AQLJufMXKFUqJlWKjn8ESxWPai2kVlMgXEqlKkJHiXTWgtagfQJdh5QAJwQVu8bvPNYl/l1ATCCxArVWMxZIFbb0gz0aRztOHHGcShD61Oo16l6dbDbb0GMktb4iMpeZPBl7VON9ipgIwmhjqPPnz7O8VOLUqbvp6+3HsW2jVBRNJ7ibDkJjWcYE2T/Qxx13HGd+bpYzp59jaWERWxsGGR7o4tWveinZjCSTFrz4RQ+STqVbr7YCWgrIZCCdB+EQWCms3p5dSSQc61liiWCvj3j5IhB4vofvm+BDM+GEKGWWdWIX6h5DeMFaDhBbg9YK3w+wLAulFFJo7Igs4o19G34YCceiNf0vtoGYiGLEjVmpVMhlcyu+2wgq4TOyNprreavNQ2rUsWV20lqztLREOp0mlUpBRBzVapWJiQm0Fhw/dhzLMlYUy5bG2pCAWMdc03q/taAQCAKYnuLaf30b8tGP4Lspsl/2tfT/+C+gCsY9enXNdgYKqPsBjiW5cOky0pIMDg6QTbnUfAg8Rb3m46sqg31dKAGyXbhx1I9kCFL5oEOQNrguoWofoZyEFCYD2FaglGJ5eZnOzs7Wr3YVrc9WK02oDFlYCTO8ba/cDH2nSWQzo2MTMKJ1vV7H930sS2LbxvmIiDCSzlvo3XEJXuUQtrOXbwPRMHhGrlGNQyMTMRorTaoCQwRaQ+CH+F7A5ctXmJ6eZnh4mBMnjmPZAiHAsoRZm+gwOoyyNDnrtR77D8Zkq0k4akXfpFwbaUmOHz9GX18/kxNTXL56lZQFmaxDV1cG17ZQypCGjg6zU55EamneCwssibJdtJ1GWw5KiQ1J42ZDq/QhLYlt27iui9YazzMSSIzWvrFT/eO6iUNH4lEYBti2bbwULctQxg1+aCsabPdZZGsQgnrNY25+jstXrlAsFhkeHiadSSMjXxcjE4SgA9A+mgBNGA27fVafbUIIY5e1LEk+l+XwkcPk8x2cu3iJyalJ/MCL0jW0Ls+a7wXCsHBET0qIaIlya7TRRohJxLbthrHB5I7dPT3YNolDN/JuGHOhxnVdwNifwez+vh+e204x7PVAR3kriMoTBAHVSoVro9cQSE6ePEFPT7fZTa7xKwWhj6pUUMslVLmMCHzTsq1u3LcIhBDYlkV3dzfHjh3DsW0uXrrcSNpk2rB93VeI4jd4wrpRiCWQWF2wm74fWyaOVjFZiCjMODINmnP2YpmwMUTkTHQj/EE0zXgKEekkNIrl0jLPPXeGcqXCyRMn6OvrbS5dlEaFRtKQGiiXCa6N4l+4SO3iRdTSYqRWiZZBtwgEzT1ozCFwLJu+nh6OjBymVq1y5rnnWFxaNgtDyZoEcrsr2uNx6TiOSXK1S9gycdyM2GnF0JYQ9e9yqcrFC5dYXFzkxMkTFIvFaAZtVzYJCJQdUKsvIVSdIKyzWFlYc8DcCtBm94IGhBCkUi5dXd0cO36chYUFLly6jO+bJNStaA2AWyuJ0gGuH1smjpW5GZoHQiLi0HVhFHv7AZZlEaq997aLmb9erzE2Ns70jFF8Dh8aJp1KY1v2StIQ5mhYhgQIxwEp0ZZFiCZbKLBvGnZLMArktiQZKZCN0nO14tekBIBMJsPIyAjDw4e4fPkyFy9dolqtIoRG6dBIdsJExCaP3YCIdrZPKiFvN2yZONbC7jyinUG72Wk3YTq9Ym5unufPnSdfyDMyMmKC0DZZFo1A2AVyw8ehZ5DsoWM4hZ5o66BbD7EeyEhhqxFPRrZtMzJymN7eXq5cvcLs3DxhYJTFjVD8xO8OJI/dwbaIo1XaEJEuYeXR+qv9Ad2c5Fqz2V0nNGAsTPPz84yPT6BUyKlTpygUCg1t9wopbS1ogULiCwsKXTiDwzj9hwisNBqjfL45EYlVK45oebLpDiNwXYdsNsOJE8fRWnFt9CqzszNoFStQD7Db2BZxrH74ojFw9h1ai5TIlqfRCR3jdZZfm5R94+NjBEFAX18fvb29uK6RMjYkizUQWILAkQTW3ktOu4OV/cboNdaWNFphYnMkUkocx6a7u4sjRw7jBz6XL1+htLy8Ijr2ALuDbRJHe+y3Z7VCAmr9EqIYijA6tu4b0VyHK65eG2VmdpaBgUH6+npxHOMiTmNeXYlmx25zTxGHfYUIEYAIEARIgsjQHe1BeAvAtOFm/Q1WVzom5MH+AY4eHmFpeYnpqSmTj2MX/Rj2M/aCNHeMOOLlyn6Fjta6poTakEW0D0icqk4LzOcbIA51DwKfiYkJxsbG6O/v4+jRo5Eew8yKcXNoWhLfJBPgCL0maVlYWNrGjg4Lu5nJ7BZC3F7NoymhSSkaCnnTRqu9UInSHwohGBocoKOQZ2p8kunJKQhDrC1INOshLlNyQtqvSLbhbkiqO0YcBvuvIVW8ZUDjIUeDVNugLVAuqBQop/lZ47z28Lw68/MLTE5OksvlGBwcREprdaTiGmhIKpuYaZOC/e2IzXZ6M4jNM85mswwODpDJpBkbG2NmZva2kD72ktB2hDg292j3AUSIFholJApBra6ZmSkxNbGMX499A0wejMZPBJBIQlQulxkfn8CyJCMjI3R0dDScbTab61MIQRiGmx4UtzJaZ8Zkm5g0iSZiOEbDsBtLatGzMr+V5nshsSybQqGDoaEhbMfh4iWzhQNaR1LMQdtfD3aEOGLEiq59i8YWhZow1Dz91Bn+0y/+Nv/5P/0Ob/+9d1EqeSghUOgGHQqMtKK1Znp6miAIOHLkMMViEWjXAWMdROwavo/bYw8Qt8B2W6LZvi1X0jRNY23PN+8NgRQ4fPgIlUqVK1evUKlUEetIlAfYGDtCHJqkZnw73WOvIBodLwwVH/vYZ5iZWWRsYpqnnnqWp54+bZLFRJ1PKUWlWmN6ZpZSqUR/fx+dnUUcO3beahUL4/rHOotbN65kPbQM8cYRv9MaVKiiZMJr95lI/ovIO3pt8+3Kz1Y7msW5bXt6eujr62d+fp7JqRlqtWrjGe6ViH+rYEeIA/Z2fbV9NLsvaJy0jRdUSKctbEdgO06U20Dj+R4LiwvMzs5RLHaYLOyOazp9iyWgWefoVeiV5HEbol3NwzCgVvOZmlzC8wKTbzRSP7XrNyIiC5NcUDVkwFZiiNFOuZpc/kgpGzlQC4U8c3NzzMzMEka6qXZpGFuvcQCDHSOOmwJCAQKBxLYtvvVbX8+puw+TzsPrv/61PPjgnVhSMD07w7XxUdxUir6+Xmzbadux26JhIUmeH+v/N3mNWwiNjZOAmqf533/+Xn7lV36H3/3dP2VpqR6lDNwYScq/XkhpkU5nGB4eJp/PMzE+zvLyciIC9wAb4fYiDm2ZpC8obAlHjvTzC7/w73j723+FN37DV1KpVpidmSHtpjl65AjZXA7HNVtQmrQB8RraKOLWmvnWmxVvVwQq5FOffoSPfPRzXLo8zWc//ywf+ODHCULVNIVvAfGixHTg5ru10Co9CGGknXQ6zaHhYZRSXLlyhcXFRcLAKGPjnBarJWmTvvF2xvqtvSWIHZsRdhdRSLoIIiuLhx8sMzZ5FaV9Ojs7yGZzO9s0BwBgYaGEUg5uugNFCs8z/aWhR14HWqtd42JLSorFIiMjIwRBwOTUJKVSKSKX1QUTjf9uX+zY6Njva0BBtLOaEFjSQoUaHfrMTk1TKVUY6Oujq1jEsmxsSyKRyISDZnsdjk4sQyKdR8NyE8+Jyblxf7fRVrGi9lqvOJrtZSJfJTavfvWX0d+fwnGWGT6U4XWv+3KkJcDsqBLpMRRCKYQK0TpMRMuCwGqkhVQalBaEul2c1OYOon6ro1fHcejp6aG/vx/P85ienjbnKhr1QAujO9ci2nXu1nqmm8WOEYfB/m9EpRSe7zM7O8fc3DwdhSI93b1Ylh11JlOH66tJ8tfXd6WbBbqNZoeENGEJQU9XgZ9924/zwz/yffyH//BjDAwUG2758S/NX+Z9cvc2893Ktmy9105ARCn4urq66OnpYX5+gaWlSP8R+ZUcYMeIw6SJ37eIkiMHQUClUmFqeoqOYpHuzh5SqTShanaKlSa/bSIZSrLR5Tb6/iZHbBURKGxH0tFZ4IUvfIDeno7o+4gQ2vaf5mfaPJw9Q0wgvb09pDNpFhcWqFarK/evvY1ZZIeIY38iFkGVVtS9OlPTU2ilGOjtI+WmcCzbxIMgMLnHoySD190fjEgr9WYaOMqCvpejYldhqKCJpiyitcKyJEJohAW2I00wX5RecTVar7XzMIN/pWQTI1aiZtIpenq7ERImJyepVOpoDUGkRL0dsXG/vukgzXpUCUIF84sVnj9/heWyR0/fANlCB8J224rVNwa7OzD2A2KTbJy5fZVeKHoWKz/ZCFv/xbYQ+ZkIIU0MzNAAvu8xMzNDEBxkALv5IYjcxWFiYpG/ed/n+Kmf+h3+9U/8Er/6W3/Bv/2Z/84v/td38KWnr1DxNXUvQEdxDpYw+9gmj60iVn+uqwbViT1WYuvOPkfrXjUr9q1RIJRAqOYeJzLa8yRuCSVoficshLAA2XhVwpxjMpu1tmKizdbtqq1ktINTgqAROiAE2LZFsbNAV3cntXqVufnZxkbqxO11Gyxj1nsa+x5xqLwSECCpeYrzFyf4+V/8Dd791x/g7MVr+IGFF1rML1Z57uwlfvW//SG/+ut/iB9oNI7RjkfDPL7WQaq5nUVD4ohjS/T6qdc29wwSuVRuABzHIZfLUSwWmZ2dZWlpac/1MDcSNy1x6MiMplGEWuH5IY89/jy/8l9/j+n5EhXPRzp2wzQopaRarVGvezx3+gK//ht/TKVcJ1AmC9jGHXVrSExUm0NyUO0BjDLb6B20EIRKIYVsRu1K0diDtKlriI8dwKYus6mTbghElBxZCEFfXx+pVIrFxUWWl5cb0kf8Gp8XH7cCdpA49lY8i6UErRWVSpXp6Vn+8q//nrnFOiEWSgrCKAO2Oc+Qh1ICz9Ocee4an/rk4xH1mPGdPHYKW+smOzgwN4COMoiHQcj85CSl5RJKG/KoVqssTc8QRwVvjTg2+n4r2Mz99h7x4BdRtnPLskin0xQKBaSUzM/PU61WW3/WwG6Sx16NwR0kDnZ4yK2NOCO20pqa51GreVy8eI2ro1MRaViRG/Ma5dGCwJd84O/+iVCFBKGmWg8olevU6kEjnOr6sP41zDqYPWuzZGfVWhOEIQsLCzzx+OM4WpFKpajX69S8OtlMltDz+OznPsv84uKKGA6NcfZaF+tXvQ3W+8Fa99p+110tAax3/81BRLvI5/N5uru78X2fpaUlgjj/6VrV2AXsBXlsv/VXwPj9B0GYSPO289Da7MztBT7zC/NUalVsy6Gjo4NPfvqLkT+GkR/i7pDcZU5KiRWn9UMzOzfHuUtjLC/V+N3ffif/7if+P37zv/0Jc9NLm3L0SW583LqxtI50Jyu2M1iRfCZOIRh9luxZba7XVKpuDN1GXRhqhR8G+GFI3fd5/MknmZub5a677iLf108qlcJ1U9i2hUbTNTDAQw89zPT0DF98/AmWymUCrQl1iBaSEEWIQon4iHUTK/O7mvaJvHYxuVQlOmoGHR2m0LFSMT5/lcWkoSSNNppWljni6zcOjdQKuUaGNbPMaP1755YRMnJhz+fzVCoVFuYXCMJgT4Lodvv6MTbXE/cRavUaQRDSUSiQzmTAcagFUK35URi22StesM5khWEVaVmMT0zx6KPP8sVHzzA/6/HUExf49KcfI9RRHtLW3+0A4gESa+B3G7F05nkeFy6c5/Rzp7nv3ns5cfw4+UIHIiLXJgTakqRSaY4ePcbJkyc4f+48586dp1SqbCG58P5DzA0xeWyXK+JnuB6EEBQKBbK5LOVymXq9TuAbAtktbKZcO4HWHnNd2OkCC2mct0IVUq1WmZmdQUpjT7dtkxRYInAsGo5ba/WD2PXZnGPOCrUiUCG+CqPwbkEYhIidbZYNEEsSa5V864iqgu95aK2pe3WuXr3KmTNn6e/v55577sF1XaRls5aAKCwLKc0GSMWOTh544EEOD49w/tx5rl69Rr0egDYBYnE3al0CtB4rsXFfsW2TijHc0Xyhphw6IaG0lmwFNG0V1pshfcsye+m4rttIMbm0vES9XicMwz2RQHYLa3Sb/QEVKur1OktLS1i2RVdXF5l0JtJxGE2EEBBqQTaXRsumdcQ8jthSEYv6KzuAFJITJ07wylc+wAtffC+dXSle+vIX8IpXvrBNR98Kkiy1QcdIfK0jU+RWoRPeC40hpk2i5vHxMU4/e5pCPs8DDzxAPp/HddwoaQ2mjdrd0w8SSXHAsiTpbJp77rmHQiHP6dOnGZ+YoO4F0XNod5GdQtRIjSVdy9IugaSJflVbRmVs6JY283wS10jePURtrOtpgZSSrq4uwjBkeWkZr26I/WYkj31DHA3xPTo8z6NcKaO1ppA32mrLinYxUwoQCG1iIFKO4JVf/iIs20YpicZCYCOwohwc5pDaRgoXpTSWrejrzzMw2Ekq7fLDP/xd/Jdf/kn+1Q9+J109eaSIpZOtQDc7ZNuObYhMRDohmn0ZLcAPQ5YrHhdGp5mr1PA3mGnju8RHGElnnucxNzfH2bNnCYKQu+++i46OIrZlYVn2ikppbRR3RjMRK/Ga5Y9tTtqEiJJKu3R2dnPfvffieT7nz19gZnY2Er93YxC0tmX76yfboR0ERP1lleapDRL11xCEAYuLZVQY4gf+ijqud89WxPq2TCZDNpdFa021Wm0qUG8i7BvikJZsLE1K5RJ+4JPNZslms1iWhZQy6uQaSTRbCgWh4f+HH76Lk8dHEIRYQiKxkdrB0gJLicijEQIvQIgQy6rzDd/4Fbg22LYmlbHo6k6RzkqEjKSZ1kJuhLYzWOJvTXTVqC6JWToIApZLVX77t9/Bz/zH3+C//tYfUa2UzYbZ6xQk7rhKaEKlqdXrXLp8ibm5WU6dOsXIyDCpVArLsho+LTQUkfFFzPsmccfXjq6+ol4agQlBHxkZ4fjx48zOznPmzHPUqitzeO4ctMlqHr1vN1Q3coERGqRxTzGTQusJKxDdQxtfjMefeJZ//5P/gdPPnW20Xbs0AhshPkdKieM4ZLIZstlsI/gy8A2BbOZaNxr7hjiUUtRqNcrlMvl8nlwuh8A4IbXfh818pqMe4bgWb/mer6O7Ayw8LK2wNEgdIqNd0CQh6ZQmlQ558MFTvPiFD6GVSug+muve64NO2DM2dzEBPPnE8zzxxFkW52s8d/oC7/vAh40T0TodSaONhUMpLl2+xJUrVxgaPsTREyfMRkXrwHRSk9N9bSTqkiTFyPxoSYuTJ05w9MgRLl2+wsVLl6jVaskL7CCSm1m1L3VymRIvVRp6lpVnbvyMhNmiYW5uFj/wmJqaMopkKcGyELaFkBIhJVqKbSnThRCkUikc26FWr1GpVBpZx/Yz1u9Zu4iYDEIVUqlWKJfLxozVUTTKS20ada0YEqnBUhJLW1gKHAGn7jjMT/zYv+DooU4cWUMFS0gClKojLQXCJ5UO+MrXvIgf/aG3UsinSblpLCSWkWMSJdxltPQL3zfJbFAhKcchDAOCwCjP2ukPhBD4vo/neVy5fJnTzzxDZ2eRe++6m0I2jyMtUo7bSODbCq01ITpSPDbXZO3u1RbRFB+buTPZPKfuPEWxo4OLFy9w8eIFVBigVdjwoLxeaCXMhll6axtva92QnVYMyLYC4gpobMfmta/7Cv7zf/5FXvWaV6MsSYBZlvlhgKcClDb6jjC6z1poVRbHbS2lxE25kdLfxvM8arXaSv+ZfSaJrO5RewFhGqJSrVCtVrFtm3w+TyqV2kp/AEBogYWF1BKh4b57TvIff/7H+Wff9dXcdaqf7q4MHYUUw0PdvPiF9/Hj/+Zf8Za3fBvptJVYKeysVWMz0Do2x5q/02mHF77wbu5/4CTFos299x7nG77+9diW3VbgqFQqzC/Mc+bMGQr5Ag/cdz993b0EOnYTXxvNDthy4cifYVvQAIJiR5G7Tp2iWCzy2OOPMzk1RRA0g8C2i+0EHsZYLW1sBYa4BwZ6G0vLUGnqfshyuUK95hm5JXI4XNPpcBOQUkb+NC6O4+B5Hp7nNXKg7icIL9hsnun1YDZenp9foKur00gKbYailCYWQmtNrW7E2Uw6s/3O2gph0rtprQhCRc3zqNc9ZmYXGBzsJ+O6SEciow3XWpckIpqFNKC32FFNHaLBIYwCLu5oomHqEYBJdTc+PkahUKBQKEC0PVCoFVXPp1yrknFT5NOphq+B1kah5/k+1WqFy5ev0NfXy0D/AMIy4rKIx2+kxyB+Bg0dRjP2RKEIhUDqAGt2mku/+rPYj34Yz3bpeOXX0/9jP0dQ6Iw0Gpt7PrFkY8phEifNz89z9eo1Tpw4Ti6Xx3FsLGlSHmwEKQVBEDIxMc7AwACW1Xwm8dIyRtzEKtJfiEhijSHXI4+I9BoQuvksozQNaAiAStXjHz7+CH//sY8S+DUEmte88tW88Y2vJZ91V1ymtX9tBbGEEZttHcdpKFfXGi86UrYSbYO5Ftb6/VawtdGxBtrNiO1Q9+pUa1Vq9ZpRDmV2kDQwBREopADXluSzabq6C3R3ZSgW0qTSFrYES63xUJOD7TrR7vJJ6JZzhDDEms2k6O3uoJBLxXspGwkhUhpfvXqFxaUl7rjjDvr7+5G2URw3rpO4Zvx3cuibayXuHH8hzH/rDrBNQkck4jguvb193H//fVQqFa5du8LCwgL+tmbQLZSqdULYsI+t932kmBUQegEf+fvP8hfv+jump6tMTZeZnS3z/vf/I3/w+3+OV/NWNO1GfWA9iCgOxrZtXNdtLF/2i/5jR4ijHZKrPaUVYRji1T1c16zlXNf4EuwmzKBp/1ns+JM8dgyNGWydq7YyRwIiUtDqSJKr1WpcuHCRsbFxhg4d4vDIYbK52AnO3CN5t43qZG7b/tt2+pDNY3WFpJSk02kGBgYZGjzE2Ng4V65cWTUINhzbDaxXs9U6i2SbbB9G2nv+3Bjvf//H8eoQhjYKB6UcQuXw+BNn+OTnnmhs7iQa/10fYgJJp9M4joPv+/i+39Z5rKEHiSw/u4nr6SXrQkSp5f3Ap1qtIqQgl8thW3brqbsO0dKojc8TlsZW0ff6kBy6m2/i+GyhjdLY8zwmJsZ5/tzzHD5yhDvvvJNsJmvW7KJpU2x4QCZe1x5eybKt8dU2keysK98bD9RUOs1dd52ir6+fZ599hqmpqYY4vjkdSLwAXrugrd9s7Qm0oLFk0Wg0Z86cpVrX+MrGDy0QKbROEQQWtTr84z99DqVMrE3cp3YSlmXhui4iUoxrrRuvYDbnDsMQFYUE7CZ5bLtNN0LgB/hRarVcLge7XJF2ELFksVn34n0ArTRCa+bn5rl06RJSWtx16hSZVGqlyL1RU67wyzAnb5jyY6NrXgfiMkgpyWTSPPzww1iWxZkzzzE/P78mEdxYxAyg0AK8MCCIzNca06Dxpg6+0igk4W42ImZCjpcvcczLjVi+7AhxmBlQIqWRMup1D6U1tm0bb09ttOIbrzVvdsjErLg5NJ+3xvPqzM3Ncvb556nWapw6dYrBoUFS6TRhS8eISTGpqzETpIZE+jqtBSEC08VWlk3Ev0nOjrvU/2IpyfQTCyEkvb293HvP3QS+z9mzZ5mdnUWFAaoxIGLloFnqxgOlHZJtISIfExntBbsdKK0R2GglUEqiNAwd6cfJ1sBeQIiK8SeRGi3r2KmQBx9+MIrd2Xk02y86pMRyHaRjo4XZKa+R3CpKobnmBLED2JFaxiKT7/sEQUA6nSblOq2nHWANhKFPqVTiypUrzM8vcOLECQ4dOtRckmwDK6UNM6LWi+O4LpF+mxDCzNj9A/2cPHnC6HIuXqJWr0fZx4zuw7TDVvQg1wetIAih7gUEShAKCyUEL3nh/dx5fJiUDLGoY+GbQ3gcGujma77qJbgJy89eQAiBtCykZeH7nlmmxO20iw225VquZD4jJoVhgJRmNnEcF7TZaetGQ2uNClXUCVfqBXYXiTVB23YwM6nWinq9yqXLl5memWZwcIA77ziBbdsrSENE1g6ZaPtVaHWBbn/jlWXbZZhbNMuxsu8062FZNrbtMDQ0xNDQEPML81y7dpV63WxDYDZtio/1Ect8aLPk2yq01ly6Osov/9If8DM/+9955/9+H17dRwpIOQ4/9K++j6965UspZhzyjqCQtnj4/lP88A98D7mUu2nT9U5DCIGbSgFG/5FUoO7GMmaLxGG0/IYsjAgJJiVffMSKpE3baHcZKtpCsIE9K1aD9ls+Ny0khGB6Zoax8TG6uzs5evgwHYUCCAktjlgrhs0a40dHdVV6LRf9CJo1L7LOr7aFSM5p/XgFGuQYLS9yuRyDAwN0dXZy5cpVFhcX8DwPiAlkfTQG7jb6n442x/6nT36Gp5++zLnnp/nIRz/L089cQGuNLTT9PR289S3fyc/91E/wXd/6DfzEj/zf/PgPvZU7j46QtixDVlu/9Y5AYCZzS0ps29pVx7EtEUcs9gaBSUYSBAFgHvh+x24x71agIwtCpVzh6rWrpFMpRkZGKBYLiMSg2Hh4GCSXI5uq2zqnmCe7w4iU0VJ7SFVDqKD1jNWIzI8dxSInTxrpa2JikuXlZWq12ubqeR3QQLlUAmxzaMniUsk4rGmF1BrbFpy4Y4gH7jvJwy+6k46iazaaSpL87hazLRr9RmuEkKRdd+UJO4hNE0ec9UlrjW1b2LaF4xiRWic0+HFshGgTX9KAbu7XccsjqmIYhiyXlrh46QILi0v0Dx6io9iBFaUzlKFCBUHDu9MS0U5wLZaghhJQG7lCRW2pAIXJ2B4NV0CuWJGYT5ubO2sazqyN102zVgtaY2J0NHiECvGXZ1keO09YWVxFdq0HWiOliUURQpLL5env78f3fUZHR1leXjJh8WuVcztpACPbqRAax5K85tWvpL+/QCajOHlyiBe/+F5cKVDCRkmJk3YIlSIQdfP7eH0UpXzZi5WgSPSFZD8xpnjTf2AbbbFJtBnVa2O32X43sSkxflegqVQqjI6OsrCwwOHDhxkaGUKlbUIBQmt0tY43Pou1XMeKNOIkfQHWKLKJdYnqtcV0fjvfldpDKAhqitqib3Z3b7hybx6WZdHd1cmxo0eZnZ3l0qXLlMvllZUQJmPc9Q4SrTX33nMnP/fzP84v/Kd/w7//9z9AR94G4Uf7CpvFkADTl67vdjcttkAc6yjmImZTavfWVNuFiGJDYulnL5RXWmvCMMCv1xkdG2NycpKenh5GRkZw3RSBsZgSKoVlO4R1j/LyMqFnXJZVNPPGaMwk0Ufm+sbRRzekDBJShtiTWW8FubUgvnVgWTh9fXTfcw8UOjZMobMmIuvBsWPHGTp0iMnJSa5cuULdq6MjPdtafXMrkFKiJXR3uxw72k8uayOFQkcS2gEMtkAcG2O/CiTxINpOvoStQqDwPI/Z2TkuX71KsdjJ0aNHTX4RYWjL1pDSJsu30gq7kKdwZBDRmTWDQK8UeVccurnEa4j3+xYakAhctHARWNsnbmHmea0Vtm1x9OhRent7mZycZGpqahf0H7EtWIJ2EfrGWUz2IzZNHIbN42P/QycII/57p6G1WWsbvaZRGk9NzzI1NYXjOJw4foJ8PtdIWiswFhMJ2MoMKQ1g21iFHCKdMo5HMUnE9UjoAJSKlyZGmhIkFRRbg4gkGeLX+FgLyXM2LaUbs6hZg2/uF0k0rC6RxSCWeuNNkA4NHcKyLMbHx1laWlrhvh6n5NsqoZg2SaYYNO2bbK+NG2vvIaIwj92OAWMrxEFUsJ0QB/cKmxkL1wOzPDMh/MvLJa5du4YQgpFDQya9gJQrpDBDHlFXFPFgkFH5zKu0opDYxHJDRV6U5kial80JUZdu3miriBVrrZ+3ID5nM+cmsd1lU7u+ZvqgaVcpTPRod3c3hw4dolqtNgLormcAicZ/8QeR8nRVO8XPofX1xiAmjnbtttPYXsveZEh22njJ0uo5uVXEeoYwDLl48QJLS0scOjREd3cXwrIaUZIbQotmBvY2oytOw6+if7uJ1XffP2hOWqtLaVkWju3Q29PL8PAw5XKZK1eu7FoS4PiSTUnQ2LRuNHHsJW4L4kjGc2wXglhKAKUMYcxMTzM9PcPhw0cYHj5EKpVqmBI369vS7HymQ2plZo3YXN38fn2R20yKErHDe7RsFq1xM3uCyJICYNkWtmOCv3p7e+np6eHq1atMTEzg1b2GFyUJElrvsCKNTPIQ0qg8iCXDFc8vfj573Qg3BrcFcewEdEQc1VqVhYVFxsZGyefzDA4O4Dg2JLY82B4SnW9FZOvezWR7c5frQ3Nwr/wsCSFMCoejR49SKBSYnJpkbm4Oz/NWnbsdxAS0uVQAtya2RRytzj4kmHe/QLTMgq3OMpudHU3S4ADP81hcXGZqagrLkoyMHCabyzXaYnX9dSS+Gp2E1joy6cVEEGfrTrrFG6LQkbLTXC5KXdcwtcZHUwfSPBR6nQzg7aAxjbWZX62+X/PYieVfjJUz+MrPGmjRt7X2PRltQZDP5xkeHiadTjM2NmY2gvaDRuhE/NtV198EkhLK7YZtEcftBIGgVqsyPj5GvV5nYGCQYrEYBfW1nr05tHMc0gmJw5DH9jrzVhCTBvFrfOxzbKXdRcICc/jwYXzfZ3pmmkq50gid2Cr24tnsd9wexLGF5ytEtF9tGFCtVpmdm6NcrjA8PEJ3dzeu60adpvWX14nE9W73TpmEiCwFzb/b85tOHIjE+whxst+uri56enqo1WssLi5Sq9WimKvVUsvmsJ3f3Py4LYijtZOtB40mDBULC4tMT09RKBTo7+/Dtu2Gd6JZnrTrvgfYSWitouRQTV2CjL1VEz4dq5ZNCRJJLifi5D6u69Ld3U2xWGRhYYH5+fmGhWwz5BE/+3gC2cxvbjXcFsSRXIOv9YgVmkCHTM/OMD41QTqd5siRo6TT6VX6nI3ROt+thtaRxkMYl/F4qXJDcYNvvx0oAcqE90XJz2J/F9OesaE0eZAglP7+fjKZDBMTEywsLNz0Cs+9kla3OiJuGui4U60hFGitCVWIlgJfhSyXSszOzmLbNsOHRhp5UreGuGuu8eC0QGtpclNqEe0BszcPuh0ETY/RhkfkjSlKe8RRn4nXlV8bhXOoNVoLFpbqPPHEeT7xiUf59Gce48LFSepegOcHK6qlor4hbRthWWRyOQaGhnDTacYmxllYWiTUCj8MCVRodryL1NoKEJZZLwXKeNas1cf2GnFf2ov+dMsSRxLJBxtLH1qa7SWr1SrXrl0l1CHFrk46u7rNjlzX0/gN/+21oTFbBobRrLj+2bsPcTN1hgaDmFL7gdkY+qff9uv82q/9KX/wh+/lv//mu/jpn/k1fuvtf8zCUp0wNHHRa7WzEIJsNsvQ0CGU1oyPj+P7/m1pMdkMbpq+shNQ0QbWSkWBaHOzVKtG8dnRUcRxU6goO1dTn7H2sSb0zaH/iF2o1x1R+wxxeXUYgtYQKh555El++/ffyeTEMtUa1OuSMLTxfIfPf/5Zfu8P3sHcwnKUgDi+jpEaks9TSomQgo5CB729fVSqFWZn56jXaog478k+X8pc14S3BdxWxCGEwKt7LC4usLy8RKFQoLOra8X2etGJyZ9dP6KBaV7Mv/2ABmlE2LhUG5+xFxBgdo3XUK56vPsvPsDSok+ozCbaxtwtUErg1R2eefoCH/7wp6nX25heY45PcL2QAsd1KBaL5PI5yuUKM7MzBGG4rUC9WxG3PHHEaz6lFEtLiywuLpDL5ejs7DKbXDfOW/GzHcWKtWc8u0f32/NumNCzgEYCAkUoQkJbIKTAUiCiNHkSjSBEaLWt5L/Xg9a2af5ttgcItWZurszU9BJKxRt9hcaxToQooVHaol6HT3368wRhsKV4HxntoFYsdpAvFJidnWNpaRmtFGgdJQ6KrSwxWkt9a+KWIo5YGapi05w2s3t5qcTExDiO69Lb00vaSeFIs9+LiMxqrHDA2tyxGsa7szl9Ga9PJSRhZLlRmGxdQRCAUtFZO9vdoh10G4cR0I0mRSNQUZYxKRRSC3R5AS1qlESICgKcSgWCJazQQ4QeUgfYOsTSGpHckGiX0IgNiZw2ViwPoyYOQ4VWmi9+6QnQDlqbNImxhQpACG3SaSCp1wMW5hfRKkBEGdBbPYnXOhzLJuOmGOjrIe06jI+PU61WE4pbUyghovQJmzhudtxSxJGE8ccIWVpcwrYtenp7yWYyJsNTu27f5qOdQqsnaFvO2UUIrRH4aOGhpI9AkVIKq1rFf+7zTP31n8LZs7g+OFKzdPYRxv74v+NdfAQ7rGIFjb2HDMlpQ3h7iVaijpcMjuMYgm7RPWgjXEVEYj6wpEkovF1IKUln0gwODpocssvLVCoV9B6Fsu8n3FLEITDqCRWGLC0tsbS8TKHQQSqVJZ3KIoRtnLdauo+MlITJWeb6EEsc+wNaSCyRQQU2trRI6Tpq4jwT/+vXeeanf4zqxz5IeikgqwtYQuEvlKl+7FOc+fmfZvKv/gRv/Cw6mKNueUZ62SMzcrwrWhAEaDTSarapjKxiDz30ghVkHM/occmUBmlZ9Pb10ttTbD9pbAP5fJ50Oo3v+8zPz+N5XiP+JW6XvWijVghMjpjdxk1NHEnHLoXZ4LpULrNcKpFOpSh2dGx6JtjcWfsRAqHjpcga0ODXQyy/ghg/zex73s5zP/2vWfjAu8gvTeL4JZAeQdqhjIvlOji6Sn5+hul3/SHP/9JPsvR/3o0zs4AOzHJnzxCti1YNQAHSFvR0Z7nr1J1Iy1jBGub2yINUWoJMNsMb3/iNZktSsbl0B+vBJGAyR0dHB9lslsXFRebm5hrEsReD90bCetvP/tzPt364eWhAGLdgpSmVS+TzBdOouzgYNebiJs2eAK1ZLpXwPA/Xdcnn8li2A5H+olQqUSh0ALEJcmXp4nfxpwJ2wLISzzarZx2tYXFxkXQ6FXmmXse9tMkYFloBgQxQQiK1xiLEEiFSKCzfQy7PUPrU3zH27v/F0sc/TG5mGlfXCRxBvdiDuOthOr7xu8l/2VdTrtSoLs+TFnXs2jL2/CIzTz9H9fxZHOmR7uszFmfLwsJGhBItTSYy037x9gXbq1e8oDCPVjM3P0dnZzFKX2Bg+oBAWpLjJw5z6eI5ZucXkdIydiutsKUgI+G1r34xX/WVLyTlOtGgb95rW4ge5/T0NIODgwCkok3Bq9UqYRjiOE7juV7X810D8RhY2WmhUq0ipSSVSROf0oqdKM91E0dD2RMN3kJhD4hDRHoDwPc8lpaXyGSz5LI5HNcQRhxPopRieXmZjo4CmG8SxJG066889DYbN5k/o5UwYuwocUQDQUuFFhqwcRTYykeqKpTnqJ9+jKt//NssfeRvsc49R97zCKSmmrHh+F0Mvv67GPjOHyB3/8tJn3qA4sMPI0TI4tIcfrWCqwSZwCcYv8Tc459h8coFCp0F3FweaWcIPIlwRJSjM0SIIMqmur3ZfQVxoJibW00cjXMFFAou95w6TrlaQakAKRTptOTIoT6+802v53Vf9TK0Vji2Wd5sOYKgFQni6O/vR0a7GNq2TSqViix4S42xEfsE7TR0yyVFTByWJJVOQxQQ2IqdKIvwgu3vihRvHiSEQIUh4xMTDA1FmyVrk+x1p6Ej60QQBCwuL+E4Drl8HtuyEi7JZvhrbc4bGxtjZGTYPMQGcbCueK+22bvigKy1SANM/tArV65QLHbQ2dl5XQ9SAZYQjbprLXECH10voWvTnH/H26k/8o+kluZw6hqJjedalPMpBl/3tfR+wz/H6jwGuQKhUkhLUqkvkPXKBJNTLH78g1z68N/gLC1SUBqpBb6t8Iv9ZF/8ao5+xz+HoRMgJaEl0SJAaoXUFhp3W+7YVoI4QhVw7tw5jh49SiaTMJ83xy+hNqPIV4rlUpVypUo6ZZNNZxESPvLBz/PpT32eE3cM8v3/4jtxr3NDdK2Mte6ZZ57h/vvvX/WdGbCCaq1KuVSm2FnEdd0Vz3m9/rEZRFVeAaE1M7Nz2I5NsViESG/XiuvpbzFuHuKIxNZ6vU7NqyOkJJ1KmU2u41MaDZIkjpCxsXFGhiPiEMnM1QotQoQ2XXVlaQ1xbK3jr2eqbWLniCNqY2GZ2AvlI2ol5Pwsox/9MLMffBedpSm0rqFsGztwqYgMXa9+Db1vehPy2INoK4WWoISJnbFCga01QinQCl0PqF54hskP/ilLX/wnnKUKlhRYysaSWegfQLzmlRz+um9H9vQTummkTiO0ILBWt+pm0I44Tp48iW1bjWVGkzjMszayiemTyWf2+c89xh+8/S/x6haWXeNrvvZlvOXN3w5rDKrNYD3iSEII0UgC5fs+2WwWx3HwfT+yBm0fN5o4tjettsMOFGZNCKNZr1Qq1Go1o8fI57EdZ8NBGkNI49wkEKDNFoixT8L1waynY5PrTsHkEG2GZSjj2pQYMNGw0QI7VFhhHTk7yuInP8DTP/tDeH/5+/TOTePUAwgkHln8F76GY2/7NQZ/6G3Iow9Sc3J4tk0o4o0AZKRs1igLAlugc1lS976Ioz/y89zx734B+6GHsUSWjA9pv4YYvcjyn/0pz//8jzP38b9CTF1EhuVo2dQ84uHdhPmrXcfeGPHVmh4wQgssDTYSWwssJZBKMDk9Qz3wCLVCk2Jutnz9lrOYvDZ43lprLMsilUpRKBSoVquUy+VN56Pdz7guHYdhrmZ3WFpaolgsms+FiHZeX/+QLQ4+IloTakz0qogUTrVajUKhgOM4uE6s5DIehI3fKmNhaAw4rVFhQGl5ic6OoulmQkNQRZTnWBwfw8mbHeLjrm1C6EVDM78WkrqMlZ+v/qwVm9FxiGhQxWUw/ghmQyMtA4SsEYoaQodYc8t4X/gEj//K26h8/sOkliYR1SUcW+KlC5SOnuLuH/5per7pu3GO3IlO5cFy0EQWGS1BmzbQkSlTC4GWwuxNKwTKTpHuH6H7pV9J4QVfzui1cUR5CSesovGQ5XkWnvo8k5/9FIVsHru7F5nOEoY1LAlSC2RspoykG6kj02lL9VcqR42Oo6urKzLPmgfj+QFaaS5cvMwv/MIv0d9/iMGBXqP0iPVuQtLXM8SXHnsKpQLy2RT/4l+8mc6iURw2DPOrm78t4n5GFPc0NTXF4ODgqv7besQ6Dtd1sSzLbF8J2LbZe3k7iEde8kBDqVTCkhaZVMqMgzbXb/fZVnFdxJGEELC0tEzHFkygwKrlTKyXUErh+z6VSsXkjszlGw/YbOUY3TRxK2OWXAmtNMul5Ua6P7RG6oD58THwFW6xC2FFCtWIjIgG6vpolnszZJHEZokjWTctQAuN8UHVuDrEXphFPfI5pv78j7n2wXfSsTRBoWLIxEtlWeg7Rs93v5Xj3/0vkXc8QOhm0ZYNMnK/jOiySZrxfXVCgRwXSIB0IJXH7jtE70MvQ/QPMDE7AcE8dlAhU/ehVGLm7NOUL5wmb2ucYgfSzSC1HUk05iZKagLLLLVinZMQTdV1fMuVxBHP1GY7SKUUFy5c4gtfeITevh7uvvtOE8PSeDoCy7Z52Use4v77TvD1b/gqhg91NYTjxp1WN39bxM9JREr3ycnJhlVlM4hJxHVdAj+gWquilNpR5Wks0aTTkVWlzXXbfbZVXJeOYyU0166NMjIysqWCyYSCMtYP+J5PrV5DSkkmk2l2LCkgZlER9awkWhQSSitUqBgdHeXo0aNRRwzRYQCBj/ACdD7XFHmjjtvmUtDWrLq9ptu0jiO+fFRXiUYEHqKyQHDxNDP/+DEWP/Fx0tPXkOkAZQu0zFHvH6TjZa9i8Bu/F7oGUZkctrRRoUZaVsNZKoxuYPxAkwkvjCu6KUMUXxNJQAKNCM2yiaCGnrvK3If/kolP/T3pqTkIqliECNumkuui/yu/ka5XfR3u0fsgm8aXGilFlHpHRPqllQMnXkaIhI7jxIkTOLbdHORCECqN5/mcPn2Wu+66k0w6hZDCmGMjQhKR8lSHRh8npdEFAMhopb7xJGGQLKPv+zz11FM8/PDDK87ZCsIwpF6vo7XGcZyG3mPN/rABtNZMTU3hui6dnZ2wxrXafbZV7BviCEOzLCmVShB55ulos+gYIvIXid+3QrchDq1Drl4d5djRYwhhNoMOQo3AwrYEWsaKHhEd0W9bLr+TOozNEIeKyiC12WM2ZUt0rY5anGDsve9g/uMfIrswg65UyLsugQOlYgecuI9T//xfI46ewssWsQPbXCNqR02zmmFUHVPXJnGYALfV6i+pMb7nSuNLCKVGBgK35hPOnmfqPX/G0mOfIrMwgfBKaJkCkaHcNczIG76Nwte8FlHMU3dSOFYBK3BQUqATHqFCNJK/ryYOp6kbMEu3qIxRpaQ2+pmkBNGQKmJ3/0Sfk5G5+EYRB9Fg10pTq9dQSpFKpRopDreKvSSOHVuqaG10HB0dkaPVJgsnopk8dpxJp9NkopgSpcws0ThXGImj8b4VLT3AdBPNwvIyhc5Os62A1pw9f5V3v/dDTI3PMnT4EK5jJwTk6LerLr8zpEH0gBcWFkml0mQy0VIl0jEoGaUSFESDIcQJqqiFea5+9H1M/uF/Rn7hc6QWFrBthe9ISpkO3AdeyOD3/zjDb/oX+D3HCawUacsm1BpLWdAmN2dcpUZdo1ezfGxtEfO1CZATZjmjjR4hdFxkoYvOF76C1PAd1EuLzM9M4oQWTiBwSgssPvVpxh/9LHXl0330CDg5pHINUQgTBCNEpJ+Ky9G6VIk2QTJfmmcbiaBGYIwLSVwps/xq/K0jqVIbXY6IfrdZJPtcrOMYGhpacc5WIYRR2scOY9VqFcH2fT/2aqmyg8ShVxBHEq0FNT79Zq1er9Wo1+s4jkPKTRmmjTckkpHiLFJ4mYml+T4eyo2rJ0a7xvh7gGZ+eZmOrk5C4NylCX711/4nz5+f5EtPnaUeBtx/753YLRLM7hPHAqlUyizFhABloRD4NgQEgMCpatzyLOVHPsLYH/wy1Y+9l9z8Am4owElTcVJw/GFOvvUX6PmOtyCHT6KsDFJILAQ61EisqA0ThBFBCeM0Jhrh9fERLwVXjqvGb6Ug1pJElzY72Nk2qaFhiq94Lakjd1KbmyVYKJGVAaq+jFVZYOn0U8w8+RipTAfp7gGEVAhhli/I2B/F3Gh94iB6JqagUjXJI3lIEROg8WYVkSu6SBBp847rYzeIIwnLsnBdFwTU63WCIGhOlmL1OGqHvSKOrctD66I5C6wn1gthGr5SqWDbNplMZoWL7k5CxZNNtHS5em2UxYUSoQ8Ch4mJ2VVlXbvkO4km9QkNQhr3cCcU2AHYi9Nw9hEu/tyPMvbrP4d45lGKXoiWmqormRkYpOf/+lFOve2XSb30RVQyOaq2g4oUx8lDC22sRNGyJD62C6FVc1kDkYIzerCpDEGqQNerv4Hj/+l36f6Rf8vE4BHCfCeOsumu1sk8/SXGf/c/celX/x3epdPosIymjlThpgawgUhQV3ysD6U1y4tV/uLP/p7nnx8nDKLpJWqf62mTnYKIFKipVArbtqlWq0ZXl9hAaj/A+pm3ve3nkwN+O4fWGqVCFhcXyeeNazeY5Ys5RxCGIVIKfD+gXq8jop3GrWim15ESTifCz9UKh6r4/cpzog+irNbmO6W1yXwRrWkXFhZNwBuClJvhmaeepVquknYlX/26V3Ly2DCIlaHvKvHe3D+6b1Qv81FCFN4CdCRxxMsyhEBJhUWAUythnXmS8f/9B8y864/JXrtIqlYBrSDjMjfQR9c3fAvHv+9HKDzwClShGz9tEdhmOrUjH4WoeOhYR5QwOTcHmalXu2EndKxabD1oPNPkr7SMp3vzmZA2Wrpkjx6l5xWvRhW6mJ6cxvWr2EEdt1KiNjnB/BOfZ/7cs3QODSKKXQjhgBSEQWDM8utKHM0/THnblTb+3zgEXrx4lT/5k78iDEMeeujuKOK29ew1ENVNR3qqyakphoY2b1XZCqSUDQlEa43v+43lSzzBxv2yMeFqKFcqeyJxWP/vT/2Hn4/Z7HoOrWFx0SxVWgsWhoog8KlVayitV9ivk+bYWBse/zOa9+hfy0BeccSp8BObNCutCZW5xsLCovEvATJph/vvO0V/Xxcvf9mDvOLlD2JZRkRulmTlexokuBLmIbZ+uhrxMGv8nSCObCYDaJx6CXX1LLN/+y5G3/VHcPqLZEuLWFoRpnOUuodwX/lajr/5Byi+5g2EnUMgs0gkSkZJaaI5OCYNoLm1wyoXerE+cayazeNDt2kdEoMqaZmSeI5NmM/TcfeDdJ26j1oIy6UFrMDHCT28hauIyTEmv/glVLVKJp9DdHRhxfvxKsXs3BxdXZ0J4ogr17h5gzhWIfGABJBOp8jmsrz4JQ/S3V2MmqXZAm2vESEZv6QaS5WdJ47k+IklENu2G3u/tJ7XShy2be86cYilUrlNL9gqTOWuXbvG4cOHowAzDBVEfhlBEJJKpdBaY1kSFVlHZMMEuBqr9QxtkFSiJ2RNLYgyiCuuXr3GsaNHzUCXIUop0A62FARhDSEcZMPtaM2hsQqbIY4V1hFAR0lnLl04T3exm76cC8uTzD/6T1z+m/fQNTmBVZrHUwEy1UG1o4B1xynu+JY3Y937UupuBunaqFBha2EGuGguR5SIlj5ErzFhSLmqXsZJu70Xpdn1vhXxFVaKzOY5Cer1kKXFEpYl6ewogC0JLQHaSJupuobFGfwrj3H2PX9EcO45UpV5Mj7omo2fyVI7eowjb/lhinc9iCj2EFoOZ58/z8mTx3BTDhqN1MZBUDUKLpFKrPIJAlYQB9Fy1Ti5xRG8egVxtGsL4nZLXCvwA5566ile+PBDydN2DTqKBFeRf5OUEmkZh0AZSe1Kaaanp3FTLl2RVaUddoQ4SpXaGk21Htp1KhLEYXbf8n0Pz6vjui62vTs6jCRarx/7cVwdvcaxI4Y4dhKbIY4gOqHhNYmEMOTyM08x1NGJc+lpLvzv38SduYQs10mHDthpyo7LctcQd/7A95N/6CH8Qj9WmDVLlmiAmM5sypFcn4vIshp/tCkCXgNr8brZ3NoMOCUgqId88IOf4EN/9wlcx+Lrv+Er+Jo3vAblhwgpkEJgB0Y6CuxlnJmrLD3xJON/8Q7EtVFyoUKrOqEM0ekcweG7Ofpt/xz74S/n3KUxjt99CifjmBYMo7wbVkxkaxNHpH0xSFRGCZUgiSZxtMLcYfV3vu/z9NNPG3OsMBLfXiJQCt830kcqZeK1lDLm2FQqRVdX55rl2olxYP2Hn/6ZbVhVVt9YKWV0HLkcWimCaE+KdDpzXa61W0G7eyilWFpeprPY3l/ierAZ4hDawlLSxFGoAEfVsaol6o89xuJf/RHl972TjpkpUqFHIHxKro0/fIKuN72ZO//1j+OevBffKWCJFJY2M+XKG5hyJMkhHgaNjzYo43pY86dCN+6iEcxMLfI//sdfsLToUa36zC5M84pXvIS0a0yuaNAyRFkKBDi5LtIjJ+l5+VdDvpuliauEtUUEPnatRLAwzvQTj1C6cg7Hgu5jJ7BSTlSehLOaMP+tuVRZQRzNt8aalPyi/a8NVn8XD9KhoSHzDFpP2GUIIaNwC1OWWII3BgeLbNY4TrYr106Mg/aiQ1uI2PDW+sUKfUMYhoRKYTv2qlBiM9BWHnuBtWbNvYAlQmzpoXUA1UXqFx/h6tt/msU/+WXEc5/H9sroEHzbJhg+Qv4bv5e7/+NvMPD1/wydH0LpPI5OI0IIRLBqmZCEjBSj0VhaZX7dWcQ6kAjC6CNUqExMhrQIwwAdS1pCEUbTnxAunsjgu0Vk72H63vRmTv3K79D3Xf8Xfs8Afs6keSwsL8FnPsDCu3+VmT/6BepnnkFXfAjNQL+eupmixP15ixeK+9P1FOC6YUzYtm1jWRZW5BFs7AjtZKSdxRYkDvOw1oSG5aUlOru6Ghs0w94mcW13LxUl8lnLQ/N6sLHEoUFpLM+Dq8+y8Lfv5Mo7fg/n/HlylQq2rlN3oNzThXzZ13L0h36O7td8HUGuQGjbIDShFeJZmtCSZlYVTX8FMI8kljjWLco2seY1E19oAal0iqHBQ5w7d45CIcP3vvlNHD86iJDG6U4Qu5dbgMRCYivj/IQjEfk86TvupvPLvpJaPaA6NY9VK2OrGqmgRuXCRWY/9ylqUzPk77oH4ThgRY4Za0gcq4bPij9jiWkzWH0drTVTU5M3TOIwaLmr1pQrZSzbwk2lGy3Q2u9b/94O1tFxtLt4vJXAamituXb1KoePHGmQRkzN6xV0rettB633iRWzzViVtcuxdRjlmoxEdaNwk1haISyBVgFWWEePX2Lhsx9i+p/+gdToNZzleSQaX7pUCt14R+/ixJv+GZl7XkaY60SkLAQhSmlklFtCSWHW8Q0T6UqIyCFu9TfXj42kNR0RhxCCIFAsL9dxHIt02sGyjG6jcWLUlbUAJ762jJSc2pi1ZBiiSzNUnnqEyx/8K/znniZXXkaGdRzhUE8V0cdO0fsVr6H4ilchB4+hZQaUbgS4CW0sIOu3yfrfJtEQMBLn+37AU089yYteaFzON3elnUWjXNEbFSqmppMu57qR8DnZ93diHKwjcbQzxzXRbsAvLZsoVDBPL/7FThR0M2h3n92SOATaWIQEUVtZgMDSGiusIxYmKD32ac79j9+g/Jn3kZoaw6rUkE6KajZPcPIeRr7le+h9wz/jXFggyHYgHcdkp1Jx4JcJ/DYh6fGNV9dBNLwjdx4bXbfRO4REWJJ0xsFN2UjLZFtbfaIhWwEoGddHABKlBUoL6spmznFQfYP03/EACwvL4FVIh5qUV4XZy8w++xjL55/D7unATblIN2fKoOPrmZe1y7/2N62Ir5gkDqVCJicnGT40tIUr7SyaNY1KpqFSKeNEOg4pzEQf9/vW1+vBOhLHal0GaxBGjGvXrjWD3DZJHOtdb6tovc9uShzxVkcICKREKAvbV8jyEuHlJzj3nj9CPfkoGa+GZQVUlY+f7aSSG+TY13wzvW/4RmSxFw+XemCxuLTE8+fPc//991HIZhECs6FQ5Dgfl7zh0JXATtarFRtJHA1IkwQohtjgt81OHE+dRj8yOTnFhTPPc8cL7qOzqxNRr+HMjeP/4/s5/773YZWmyeo6qq7wpaCctdB3P8wL3vpvkUN3IlJZsCVaGiJftxBbRFw/Afiez5NPPcmLX/ii1tNuGGLfklQq1Qhyi7HTEsfmiWMFk7ePFL2diAOMuK3COjKlwCsTXrrI6HvfQ+0Ln8GtzIHwkUoSYlHKFym+4VsY/upvJeg/jJQubmh2/wqkRknwA5/pmVlmJqcYHh4mn8+SSq1UMLdDYxBGTbmTOrtNj7stRnPGZfY8D9u2mZ2Z5sqVK/T1dTM0OEA6nTb+L6FG+Bp0gD/+HBMf/EtmP/IBcuUarhZgQdXyCTvypF/6eo684Zuxjp8ilAWEcLBsHTFTm/Jptk0uvu/z5JNP8qIX7R/i0FozOTmJbdv09PSs+G7fEEcrtNa3DHEYRZ5AycB8kHCGavoKCGQIMliGyTNM/sMHmf3gB+gIKgTVGtJyCCwoZ9J0vPzrOfYt34E+egfYObRvdlr3pURFSXUE0RpfawLf5+LFSygVMDAwQFfX+susm5U4tNbMz88xPT2D73vcdffdADiWhSXivKeghY2nNbbwELqMHrvMpXf8EaVP/SOZWo2M9MEOqDhp6oVD9L3uTQy89puRIyPoSPBYmXG9WSnzbmtLPYHAD3yeeOKJfUEc8fNXUXKhJHG06zftPtsqWogjQQ5bhFJqTeXoXqG1QbZDHBKQSqKFJJR1QstDaBsrdLC02cxYCoGqB8jFGSqf/BCX3ve/cRanSddCpKoSOhbVQi/1kbu573v/FfYd96EzWXzLNukSI7JUUaSmGeiShsokiv3Roea5M6fJZLIcPnzYpN6PvT3b6DV2gzg2i4aH6gawpCEM3/d57rkzBGHAfffeA0I2tj9oZm03dTWCgYz+DiEI0HUPde4CZ/747eizn6ODJeqlENfNEmbzzDhp7vm27yH39d+CzBVBZFChSVaNqBgiERZaxMyy+UYTQuD7Po888ggvf/nLW7/ec7Qjjt7e3hXf7TR2hDiM/dgQx5EjR6MkOzcncZiBaxTDkgAtQtAOUklsHaCpoZamqXz+U0z+w/vh2vPo2Rly0iKwoJZx4Ni9DH3995J/+FWITIHATUeSRRsIo8MwWbiSZKBQgUIIEwM0NTlFLp9n8NCAcahr86T2O3EEQYDWiosXLwGaocFBCoUCodK4ttlIiYgUAROFuwaUEqh6DeEvs/zIxxh9/1/DpXOkqiW0H5DK5FnGwb7nFMNf8/Vkv+y14PYiLRekD1GaAYEwuVBEuxZtDxFlL//C57/Ay7/8gDgOiKOBRDtoIy67CsTiPNXzTzH59+9h+cnPkveWUfUKFmlIZakfO0T3q7+a3ld/PbI4QmClEbaFCRZfY2BFyz69ymFaI6K4FiklQRAyOTVFpVYml83S39eHYxunn7he+4k4Ym2+wISzB0HAzMw0pVKZYrGD3t5eLMtYjswvm1HIzfq0Iw7zncaYTDy/hKs14cwM0x//e8b/8QPoa+fp8H0sDSINS5kihYdfwdDrv5XUnfchcvloDxiBo8yzNkrnzTXcAXEcEEd7CIVG4gsIvBKZ6gL24iLX3vPXzH38Qwz4S2jq+ClBVVuQ7WPgFa+h+zu/Hd11gtBOIUUcTGWjkG1T8UGSONq11urfaBUyOjbO/OwMR48eJZcze3WIhni/f4jD9z0c26Zaq/Hcc2cYHj7EYH8/gVKNTZHiXyV1XU29SjvikI36CY3ZVTr6rfYCwrlRZt//TsY/8UFSizO4foClJFJmqXUWsF/yZRx5y/cju3vQTgZLpwHLpAXYJA6I4zYkjkZHjbqlliBV9IkwCkqNxFYKrarI+WuMfvAvqXzyY7jXxkiFElta1BzBci5H/kWvYPib3ox17DgynaaKbRzDos2qVOQp2Uj+G9+9ReuohUkfYP4wpRRaRv4bhsiUEGhhFjX1apXx8XGWl5e4++57SLlOIz+rZluP8TqxMk+E1ppKpcyFCxfJ53MMDw+TzWRMr9BNXWp74ojItG0dDHFoLYwvjQalQ7RQqFBjWS5UqwTnH2H6/X/K4qcfpVipYRNSR1GWLgwcJvMVr+LIG74F0XMc4WRQVmRd0RgfGvN2VUMqqZFExPGFL/DlBzoObnnisIRxpNJRpwyizYdsrSIaUYBG1XzcxWWmP/URJt7/52TnxkmpGloFoCz8TDfOvS9g4Ju/G/eeh9FuGu24pkM32i+uu2iRNpKk0ZxRzW+bEFrgeBLh1dDKh1SK0E0TEkLcx7WiXC4zOTmJYzsM9PWRSqURlmybzHn3IOLsjoRKU6lUmJiYpFarcezYUTKZbLQsaZYpkZ94lWTRJJHVEleMeGlnFMpRmyoTQIdSiNCDoMry088w9ZfvgGcfhdoc0rYglNQtiTV0ksIbvpP+134ddHSgHQlYSGU3HMlU1JUFxmFNC7O7TRAEfP4LTYmjXRTqbiLuwxjKhog4JibGcVy3QRzxrng7jduKOJKWCN2QODSW9ox3ptLI2Wlqj3+Rq+9/N/Vrp+nwK7i+OXcpJeD4Cxn4hm+n88teSd3OopwUjuuaHB9rYDVxGIJKtpFZ1jTLL0MNMwuo5VnqXgm7UCQ7MELgplCIRop/ExkZUi6XuXj+AkePHqPQUcB29iYimaidpZSEkR/K5OQkd991F5lMOo6WWOXw2iSOuN0SJBqNiHX3702IIzJmEBXGjGpaUmu0H6LrNdRTn+W597wdzj1Bh6+wQ5clbeFnMwQDA9z91n9F+qGXo7N9SO0S0ZGZYKQpXZxDTWIylH3+kabEcUAc27yRAC5evMjRY8duCnOs1kb0sITA8hRClwie+QJj73033pnTpGrLePV5Y7VzCtR6hhn6ju+h+IJXYnUeIkynUJZAS6PgMzu7tSCqvliRzDJJHIlPWyQOGYZUz53Dqi0ipaImJIVjd6GzHWhpN4iDuC4ASlMpV7g2Nkqxs5Oenp4oeVLTYa+1jbYDW0oCZZZMoVKAYGJigtnpaY4eO0a+UDCJZqJx35B+EoN9NXHE0M3Yi3bE0Wb9EhOHWeIkWlEbSUQBeGXUzDgLX/gkF977Ljomp3GCMi4Bddei3tEFI3dx8jv+Jal7XwjZLLXAJ+1mQAu0htAyV7cOiKM1VuU6iEMI5ufm6Ozq2pHOuR20u28cq1Ls7AQpInHT1NJFIGs19JUzjP/Z/2T8L/8U6+KTCG8WXwcEmRT+4FGKX/WNHHvLD5N9yVcQ5IsoJ4WlTWo71aKrWIGoOVftMNfuN21OsWse1Gsmu5e0SXf2oJ14Fm/+REQpCqQQOK5DV1cXS0tLTE9PoZTGdR2ThTxx/uaRLGt0XykIQ0XdMzvtTU5OYlmS48eOkcvlTGaqxC2a92t+2FxJtbZF85xkqr4mVn8mov+aYW1xwwNCoKVG2S4i1032+L0MvOwrCUWO0swcjl/CJkBW69hTM0x+6RGCuXGyKQunt9PsfIeNVKbvEAc2KsXo2CiHDx9ulmGvEd20QRxaUS6VsCyLbDYLkXS0G9g54gDm5+f3GXFIVChZKJUodneipRnElg5J1ZdQ01cY/7u/5vnf/1XSp58gXyqTSkkqQrFcHCb9wi/njrf+KMWv+CaC7iN4ygRvKa2R2jZSgtggdYBOEkfs4RW9b0XiMgKBLW08pfGEA5kcqY5utGWjE0reJMw4Mdsjms2euhgfH8fz6jiOydvQOHe9MjegzCGaA1JriR9qqlWfickpSqVlDo8MUywWSblu7AO7AivvZbp586PWsxNoW8bVn4novzZ3BtnYiRYtJdgpwlQHxbsfoufeF1AJ6yzMzeHWFWlPkaotUrvwFJceexQ39Eh1dSKdDoSwEDIaolEKv9FRk/EuutPeI7ppTBxaabN3rCXJ5nKwi8RxXUuVuEPEYvCF8+c5fuLEjVuqtMqLoYPvhVycmuDIiWEsrch5ISxPs/y5v+Xa3/4FztgodiCwlY3Gxcuk8QcOceL7f4rUyaN4+QIidLCUcfCKRWsR5a1EbkAc6yIppq9uexElXVZKRYl6Iw1kC1rvb/42nymlqNVqTE5OEoYBIyMjAKSifA1rQ4MIozJqYx3SNoEvuHRpCo3g0KEucjkb25bIKIdubI0wpBq1VSReGEVmO7QuV9rR4maRvNbqTY1iiw8asxWoV8d7+lFm/+yPqZ5+GsebwxNlhOOiUlnqA0cZ+upvo+er3ojIF8CxwUnhhyFf+PwjvOLlL28vQd4AmKXKBI7j0NfXt+K71na4XtyyxCG0QCuTI2J07BrHjh1BLC9Q+vwnWP7gn1M99ygp7WOTpW5ZeLaLHL6TwTd9L50vew2h5RBKCKUDOvbDaLaNEAItzBp6+w9lfeLYLFrvnySOGL7vs7S0xOzsLNlsmv7+fhzH5KpsD4ESilCGJtu80syMz+CVfXq7eynkCmbDLMvkJXG1AAlCK4Q23rBhnJU8Kkpjd/hVuAHEEb1XYYgtbCgtsvDkpxn7k98jNX0Zt1IlDMoEjoXId2ON3EPxW76Hrpd/GcLtIFCSz3/hi7z85V+2OoH8DUIYhExMTuC67gFxbAWtEodSIYHvMXX2EoPleWbe96dUn3ucXLWMFdSoWAGkM3gjx+j6yjcw+Io3oLsPo2Qa31YYO0escBOg7ZUWkkaevhuL1k7RjjiIB4oKmZudY25+np6eHnq6u0AY5Z95bs3fKa1Z9iqUKmUWJsc53NNPPpPF8gKsfAeB1pByUUAqBGUphKoTlJfRSEShg1CFOLIZ4dta1t1Gu/s1zb2xaARCh+igiq4usPDxf2DsL/8Ed+Eq0iuTkQ4haRbzWcSd93P8rT+MM3gHX3jsGV72ii+LFME3nj0OiGMTEHq1gr1JHBqhNXa9RnD1HE/97m/gXHiWTlFHezVA49s2Cx39DL7+mzj0ujciO7qpOy7KzmKFFg6CUAaEMkTiR8SRWtk+IlLA3WC0doq1iIPGjKsIw5ClpSWuXr3KXXfdTSaTQuvY9RrCIGC5VGFsfJzBnh56s2mqU2NQqaBQ5Hp7sXsHCS2XUETEYYcof5nytatY0sYZPoZl2wi10q+ktby7iXb3aiUOTZxrQ2EFPnge4dQ1Jv/+r7n24b+ic3kWR2p8S6PJIjoPI07cRXjfC7n7299CoDR2tNP8jcQBcWwIgdRRkhuhUUITSpAiRAcWmVodPXqWqU99hJlP/SOZiTHyqoIX1FDZTpaKPeRe9jIOvfZbcY8/iLJShEJFRCSR2sLWgtBSKBEiUJGC015ZJ9Fe57DXaO0U6xEH0fMSkYLP8zzm5uapVKsMDg7guClqXp3JyWly2Tw9XUXS0sIK6yycfYqU9lFKotMdFI7fgXLTBBIctAkIDD1UtUYYhFgdRSxpNwQ22pR1t7Hh/SKdTGwxl2Gklwk0qjZP9drTTHzg3cx87tN0VmawygGulaXi2niDh+h71Rvpf8XrkUeOIbKuiaoWEKKxAKtlibubOCCODWFcgqVWIBShMPtkZFQNPTfP0mf/iYkPvIfs9GVErRaRgM1S2iV9/8sYef23IB+4lyDfi1Bp0KHRV+hm/S2zYG/UIKrpOsSx+XbbabR2io2IoxWeF1CpVhkdG8VxXfwwYGTkMI7j4lo2VqhwggrLo2ehWgKVwunoJT00Ao6Lb4EUxvpiXOvb37u1nHuBbd1TA4EmsEKELkF9ifCJLzH2gb+m+tSTZMqLCF1FSAthFVnqPcHId3w3+Ze8CNE9ROhmCUWIBJzIbL9Wm+wkDohjQ0TrSW08KJ3AQ9SXqD79eZ5859sZmJsiNb+M8gNE1mY5k6fSOcy9b/4BUi94CaKzl3pYb5jXtI5di5v1t+KGbnjZxLoO1by/SC5Vbtwat7VTbIU4YmXh9Mwso+Pj9A8MMDc/T29fH/09XahQ4ABOWKe2OENlYRah0xSGhnAyabRlE8iIP4XZZW0ttJZzL7Cte2oNOkCjCLSPJQXC99GLZepPP8qZP/x1UgtjuLUybqjQqSxBpsh0Vw/3ft8PknvxKxDpPFiuaZiG1LGNsmwBYWAcwNzU7UQcQq0YuOtDo/GxkVjVCuGFZzj/gT/De+Tj5Lw6jnbROkVdCtRAB/1f+13U73wRc57LoWPHKPYU8LwQy02jpDGrGiVoO8TliXKMrvjq5iMOIYzZTgiB5/nMz89TLlUodnWRL+SxbRuFZmlpmZmpOXq6i/R0diK1whYiGlTRk5UKLbXRL0aK1XbEIVT02Q1QJre2zWagUXhRhhSzzaZRoOpAMT89zfKzj+CeeYyFz34Ed2kcWfXJBOC7sFjIYN3zYu544/+NfdeLELk0SJPAabcRhpqJ8bHbmThkw6wWXyG6EwKNpTT4dcJzTzD5sfcy9+mPUvQrWF6dUGqWpYPuG6Hry7+a4a/9JsRAH0qkCUOH5557HulK+o8Mkyt0YOlov5I1i3pzE0fsCh+HvccxNZVymemZGVzXYWBgEIQgVGZDcAUEQYglBDPT0xCEZLNZurq6Ek81RIoQIcxyUWCjRPv0ATcbcWDCXRp1FSiWZxa5dnUMbcOpu+7AUQo9P8rY+/4XpX/4EKnFeexA4MsA3wYv00PhK7+Zodd/C+7IMUilQVimz7TeLhFu0OqKtBWoUDM+Po7jOvT372PiiNEkjgucOLkZ4mhGiK48w9xfaKPDUMLsKyIVoAJSKQsrqBJcvkT1I3/OlX/8GPlyHderEIZVAuGwmOsi9eJXcec//35E9xDKzRFKYQZO9IRqXp0LVy5Tr9e49557jQXGdgiVQkSu2atIIoZQzcEhIvK4wWjtFDFxJGNUlDKbfVerNa5evUI+X2BwcACR2FHPPLHmwNfaWKdUaLb3XC4tMzI8jOPaZt8XKSDaXU5EKfhuFeJAQBAogsDn2WeexZIW999/H8KK+igY3VhYQl16ljN//mdYX3yCVHUWIeqmLe0s1UyB4a94LYVv+g5k3zFw8yCND5CRZSKrTtSdVrdeeyRHl4nGEYY4xiZxHIf+QZNzNCaibbXDOthh4jjPiZMnr4M4YvdsaXZ1j8rioLC9Enp5ktJH/5ZrH3k/euYymTDECS3QLl6mA/2Chxj5pm8ldewOdOcgnkw1rtfYGCgqr1KKxaUlpqenEWiOHT+G7ThEW3Bukjj2tzlWaxVFzxrryczMDLZj09fT2zZ6tpU4EJE1KYp+9rw6i4uLVMpVjhwZwY5yhELTCa6di/PNRhxaaWp1j2vXruHVPYaGBskX8jhRm8XxjBpNKBVKVbGrZarPPsPFv/gfcPpJ+jxFoKsEFgRuGn9khL6vfCNdr/xmrN5htBMtgTBsES+Ut00c2uyYNzY6iW07DAx1w+1BHOadBCwt8C2BCkMcL8RenqbyxOe59v7/g77wFGlvEaQFTopKqgP7yP0cetUbyL/6NchclkBAIAVKWEjhriIOooZUWhFGKfmWl5foKBbp7u3FtqzI+Wtlc5i3uhl7sk+JAwRSmpwRXhSIVi6XKRaLFPImCI3Ec0siGdpv/or/NgQUBAHlcgXf90ilU+TzuSgHahSDkvh1DNEg2v1JHKYdBFpp/MBnbm6O8fEJBgYG6O/vw7ZsSBjQ4mYTWqOFwjNOs9iBj5qbwPvCJ5n56IdYOvMYqaCEqzShsKjkurBOvpBDX/ft5B98ENFZRLgZwlj22EJ3akccQmuuXZvCtm0GDt2KxJHYXqFxRvSZ1GCpECF9RGme4OJlLr37T0mdewY9N0do+SblfaqTWucQXa/8aoa+7c3UnSJWKoWtNWifQISEUiAjc1icHasdtFb4QcjExDhjE5PceepOspnUqk2z4yvE+pBWB7QbhXadQilFrVpjbHyMnp5eClGoe3xqu99sFiLa2mBxcYHp6WkODR/Ctswm44Z0W86PGkqvrUjaNWxUTx3pBjzPo1Ku8Pzzz3Pk6GH6+/uQ0fKr0WbJLhRXRahIjWoglUb7Hnr5Gksf+j+c/+B7yUxPkasr/FAh8imCTBb/7hdw6nu/D/vYvYROJ9J2SMQgboiVxBEaWU9prl2bvtWIw6x/lQhQMkRHWxs272aIw1IKO6yirzzHhff9JeFnvoC7MI2TMvqOmnQoZzs49rrvoOOrv5Fw8BBBOoMdgo1FKBW+CFGESC0bDjhyRU6IljpGpKW0plKrMjkxSa1e58SJ47hRPIeIIlLNuj8aPFtvql1B3Cni51AqlZmfn6ejo0ChUMCybMIwRCQ2yb6ejmRbEj9QOLbE8zwWlxZZXl6mv7+fXDa3WrrbR8ShtW6E6+vIFF1eLnPlyhXS6TSHDh0inUqhTbqkSNIweqAV12pURRkRRBpdDzqFQqJEiAzL+FNjlN/7bib/7sNYS3M4uoQlavjZPH7HMM5Dr+H4t78FMXwYkXIMOyX0RMlULjLhCrAmcYxGEsfQLaPjMErP0ArwLQ8twApTpAOAAIsQSwvU9ATTH/5rFj78f5AL07iBAK2oioCldIG+134rQ6/5Rtw77iB0XUJpgTDKVKLBrME4bwmTkxKIZo8WaJmQfhQ6UjNprVlaLDExMYEQItpVLQ/KJAZy7WhtL7YgW+4ibMvC8308z2N+fgHLsigWi6TTqbbLkevtRFLKSFxvPuN6vc7S8hKB59Pd1UUul2tYcKyo7W80cTRLa0wm5UqZS5cuIYTFsaNHyWWz5gQRB8IZpWNskWrfbnH/0WbsRIPe/KVBaVQ9QJ8/w/jfvZupT/4NmdosKWXh2DZ1y8Lv7KPvW76L7te9EZUtYtsdoC20hFCaa1mohP4jHqemRsZyZp7J2LUJLNtmcLC/KRqvWfbtY8+Iw0w6wmRpEhq0ye2YCkKUqKOXJ1j+1Ee4+J53kC/NQLVGVksCW+N15glP3Medb/oBxImH0E6KwFZoOxIlYxZuxEMI80AbDacTS5VEHRvEocwDiOaZJEqlChfOX6C3p4f+vn5syzJRnnGSza031wrE3W57LW/aPghCZmdnCQKfQ4cOYdsOInK5UCqKd4/PF5hyJ2ajraKZ0TwxFKMYGKFhcnIS13UpdhSxbAvHMnEc+4E4Qq1YLpeZnZlmbm6e++67j4zjEiiNY0UpvoRG62a7xdcwlqMkVvZxiEZ5EspIsqgK1OfxL5zh3LveiXjyC6SqJVJaIoVDSQgWOwrc+b1vpePVX4vsPEJoW2gU0qRPbtwtorHoBtpIHFqitWBsdALLuoWIozmzR6HOWuOEAWK+RPDMI1z6m3cSXnkO21siqJVxlYuT72H+6BDHv+Mt5O9+GSLbjeek0FGSYVPatYiDFeTRFJ8TdVxBHFGJ46+0jky4EIQh5VKZ0atX6evtY6C/HzQISzYzk6+DuOa0aWEV3XOlwSHuHu2vbUyhkjAMWVxcoF6v09PTg+umoiVZ4kotKQ2TddweccQie8vzjb+NLTB1j6npKbLZHL09PeYZCb3HSZSNrsf3fVzXRWnNzNwso+NjHDo0TGexiGVZmJ1dTLksokqseGoG2yIODIFrFEL54Pvo5WUqj32Bs+/6A3Lj50mXy2RSaUooyvkuGD7B3d/6rVgvfjU624Vlu6hGL48Rt+O+IA4aBWoqAJtJdKPUNauoZTPEIeJU9gJEWMcuz1F7/mnGP/ghvKeeoFBZQIRVPEdTtVPIwVMMvu4NFF/+MvyuQ/ipzmgLRrWiPLtJHI1zor8Dz2d2dpZ6tUp/Xx+ZXA7Lbu1Mq7ERcShhitm8kpHIkkrkxjfabNRcLpfw/YB0Ok0mk8F13ajdW89fTRzxutlKPqLWh9oWyXX+6rKRICMdmbyr1SrLS8vk8wVyuSzS3tsQdKVMJPDCwgIzc7MUikX6e/sQVuwnb3QwsbZtx4lDGIlDaBDKLIdBQxAQTo8x/7kPM/WR98CV8+QCCxlKrFSWxYxL6qGXcuj130DqnnsQ+X6EyJgLNvooUR9XoCw0bJE4YhdgGm2xWawgDoVChzXSXg3v8nlUIMgePUU934EWVhSNqhB6ZQO2Iw6zT4gZlFKbAZjyQqgt4Y+fZ/4Tf8f4J/6e/NI0KV8hhUstk8HrHyTzwEs5+sbvgf5hVMqhrgVKOkhCM6MJE6MSE0ejJVcRh24MvqYaNjl0RTyUmg8j+qapG0h08sjpqV6tc+XKZdxUir7+frLZTNsHE18hCBULcxW0hu6eApZUgJl9w0gnI5RldDw6iFZAhjiSOgqtNfW6x/z8PNlsho6ODizLRimj+GwOyGZZWnUcITrqJBpLYSYDHYKlDQFr0wEN4vYx71fWUSe+W9mi5tUs57TSBH7I/PwcQgpy+Ryu6zbSGLZrt+uBina+i4mrXC4zOjpKOp1mZOQwWIIgDHEdl3gKShKHhGjArayfqX8r4bWe0544wijNg9BmTGhhpEYhbKRfRc2cYfy972Lps18kMzlJJqgShB5+ymapWCD/sldz5A3fhXP0PsgUENGKyvwX6fe0QKEYHZ0wytHBfsQK4kiUCUApwuU5KlcuYTkpMoePIbI54926CawgDm2FUJ1l/p8+wOIf/z5SuYSv+w5OfvdbCdJ5LC0QwkMTR/xFv2shDmFJIEQJhVYBKTR2AEzNMPmBv2T+U39Hbn4cR3l4tkeITTldpPjCL+fQm96MOPEQnsJomM0oSgz8tbFmJxTGzr0+mgNkI8T38TyP8fExPK/OsWPHG7oFIZrrUYBazefn3/ZbaO3w//zUD9BRhJTjUvM9wuh6Uglc2wWtIsKVyCgtoXHg8hkbG6VY7KSjI84i3iK8xjOoEIl6NOujgCDU+EGA73tkbAs/CMikbLT0SNlZtLJWaPKTMNdNzsRNf5x2HqNJxAN5cXGRUqnE4MAgjuusqsP1Iu6LQRBw/sIFFJojhw+TzWQbo0drE18Tj6t2G3gbqKj92n+7WcQSZWLENHxBzBuFqNepj15h9E/fTvWJT+FWphHKQ2qJlkWWO/roe/3XMfQdb0HmCmjHQeNiKQcddXElFNfGJ7Acm8HBvhVL0SSJAOh6hcv/6zcof/RDBMLl+Pf9EB2v/yaMTXjj+iaSFWssFeAuz/HU//wditcuQaXOeE1x4lVfgc4UQDvYympr0dRaMz8/T3d3t8m2rRSpQOGEIdbSPHMf+lsu/+6v4D/xCXK1WdKhQuAwbSmyL/oKBt/8Q/S98Z/h9w6DnUbIpu/mmoTQgjXPE3p1gdfEZs8Dy7LI5XIIYTE1NUW1WqVQyK+i9zBUXLs6TqEjx8MP300umybwJFOT0/zyr/wef/4Xf8vzZ65yz113ks9nouWFMSGXyxUWFhbwPI+B/gEy2Wzkj9EqAaxFHI1v0dqQ2Gc//xh/+sd/xTve+Td88IMf58zzlygU++jt7YGEydboeZrXMe9XdsD4NmsNvRhxedPpNNlstmHCdV0XO7ZSXSeMRFZndHSUqakp+np7OTR8CMdxTX9KSm8JvbZYkzjiftP+281i9RUSfwlhrIJS4vT20/2SryB/xx2UynNUlmexfbADgfbL1J9/nJnPfhRLhGT7BsHOgZDUreZ2E0ulEsKyKGZzq26ThKot8+zv/xL5qStkKzWWyjW6X/VahJtafXIbrMhyrv0AOXqR5b97N7nKEtguqbsfovflryJMmQFiEU3eCfs2kYg4Pz9PV1cXYRCQFRbMzLJ8+rOM/u4vsfCpv6dYXsLyy4RSUXHT6DvuY+B7/+X/396bB1mW3Xedn3POXd6WL7Nyqay9S72V1FrbjYwkL2rhQWiEA+zAlgmMsbEdEMx4JiAmhsWSQMzgGMKMGYaJGDPMDAMyYIxtBZixGCRLyBhrQZbUcreEeqnurq7q2nJ/693OOfPHufflfUtmvcx6tbQ6vxGvKt9y7z33d8753t/5nd/C8od+guDUIxi/DlJh7G6uyNHJsR/2/u1en5cx3r23gs0LEVUqFRYWFrBYLr7wAkopwjBE5E9TpRTveMdbeOKdbyWseK7qmYX/95Of4Wtfe4Es8dnZ3iHw4dELDwJuXd7utOl0OjQaDRYWnCGvGPtO9sPt2Zc4rCDNUj7321/in3z819hppaRplcz4rG9s841vPMubHnsTC4suO7YtihqNnbdogPte7pNJdBTFeFFK0Wg0UEqxvr6O1hrP81DSZRKfiMHTqnRv+X/WWtLU2Z8uX77MysoKZ86coVqtInKSHUX5k72JY4IcZ4RCFsW1hcgHhS/xT55l4d3vxz/7Jm5u7NBbu0FdZTSMwXZ3aD31FXq//wwqrFJZWUH6BpumCKnYaXWQUtKYa4zcY+kNgEnQz38FeeUyntFsS8vye55EzS3s1ufcB3JXnXFr0v7mGkFnE60ykqri0T/yAUS1gQo8EBqjokH26l0U4YSW0JdUpCV5+vO8/L9+lKs//3PULj1LI75Jz2zTqfi0Vs+z+qM/wwN/7eeZe/IHiIM50orv0v6be5+C7aAoBsBcY463v/WtgOCZZ54hSZI8hB2Ur5FehpAaYzRWZBirneehAIsgCCsAdDod1tbWqFVrrK4ep1arTRz8B0GmM7rdmH/7bz+LNj7dvkELgRaWSGta3T7//F/8KhhDGie5Cg1OrR7RMvLPbwfWWqrVKmfOnKFWq3Ht2jWiKKLf74/+FJur++WXxRmHjDG0Wi2++c1vopTijW98I8fyEh23K7O7BiFy+4jESMiCADm3yNIf/CBv/+jf58J/+zFaC+dJgzpKQy1K0N96mld/8X/iuf/hL6K//jVEv4U1CTYzyIy9Y61ySBWy8l3fT9+GhDbA3+6S3byMHdm+3wvqwx/+yMeMcHvsXmuTjc/+Jur5p7FaYc8+wNIP/DhJYwljBUK4zBXSeBghXICP0Aib4RtD//IVGtvXePmf/T2u/Kt/RHjpOapRFyEyumhayxc48QN/mgc+9GcIn/geTH2FVPoI6YMLmHf/H7K/7/ZAGXpq5C8pJZVqhYX5BTY3N2jt7CCVQnnOcOYMkM4FfnV1lW6vTdTb4Z1PvJn3ve89JHEPP/BpNhcG9VYHXq/uqvm1Sh8V3+yjcVhrefHiVT7z2S+TaQ/hKZfqT4AUIZgAgeF7vvtxfN9Dyt1rFP/LXL3ffU1oxAFRyKzRaJAkCZ1uB8DFvwhXw8YYm9u7dq9tjKHXjbly+SpJmnD27Jkh248QwjV8Qh+NvcakdQ9Q2MbyvpNCIHyFqFQJHnqI1e98N3GjyfrlK8ylEr8fESYt7M5Vrv3el9Ab16keP04vMQRzc1SqAeRyG2RlK9+kAJt16T31JYKdDYyOgYzqO9+L9AIQ4Chkci+rD3/4Ix9zE9Xgb1znpX/5cRpbG1ivjr7wJpa/6/2k4RxCCBQCkVdet1JjRYowCUG3hXfpeVqf+SRXf+X/xvvPX6DRXUdZTRL4bC4sUX3PH+LRH/pzzL/3A6Qnz5AEdaTZ7Vxnz3akUUyAg+Kwx80UefullNRqNeq1Oq9efZU4SmjUG0ihsAYEknq9xtve8ka+6z3v5OGHzyGEzj0+g3zi7t5P8fdAXBOw+5vxqWCt5fq1Lf7D73zZ5QwVGiF0Hv3qoQhYaNZ48n2PU6/t1lwpn2uYOPZoxCFQyMv3fYIgII5jer0+nuc546l0kdJWWLI4I9MZN25u0drpcO7cKRaOLRCGLq6ovPMhJq1wJrzGpXVv4EjMeZW4DyxCWldEfGGB+oW3cfwd76bbjem1W9i4g4la1KMd+he/xStf+F28Xo9ji4sES8eQvu92twqDTvkmhUX4cOMLn8Vbv4pPwkbUZ+X7/pgL/VcCjdPsJu2zOBuHALRGPfs0G5/5TZo2padC/O95koW3vBPtVdzWmsD5y4sYzyYE/R7ezgb6q5/nhf/97+B//UvMZ22IE9KwQntuju3lM7ztv/sbLH3wT2HOnCXyFCaPRLS4TFSjmPTZNDjscbNE0QalJEp5WCyLy66G63PPX0QpRSUMUXmFsa3NLZI05tTJ4zTmGq5Uo3DG0WGyuPW97UccAGE14D/+zheIkxRXc939SmLwPcvp04t893u/A2M0Xr7OHSaO8XPOCka7sVCQh+973LyxjsYilQfSJRq6eXONK69eZfXEcRaX5kFYtM6cGVPsBvEVmEZ7nSytu4/dPh5fZgghEEEdubBK44l30nzLY7z68iVC6SHTFM/G1KIu8qWXuPKf/hPNxQbe6jJCegjp5Dd8kwJhNMlLF+m/8J/xbUI7g+bb3kV46mye0c3Vnp0kG/XXPvqRj3lCIJOErd/5FP7vfwmShKjR5IE/+ePY5bPYInciFoFGJNt4vR7Zl7/Ay//XL9D91K9S3WkRaEsX6FVDonMP8cBP/zc8/GP/NXb1TUjmiD0fI53zrBQGZOFQNnlb8aA47HGzxHAbnPFUWIGnXB6MJEm5du0a3V4XrTVzjTrz803XkUNksXue2yeOXN0HGs06T3/jmwgboJREZwlCZqysNPipn/oRVpabzkg5UeMYaYMtki6JIWejw0AId/8Wt5OjlKJeqyMEbG3vsLm5xdr6Js35Bc6cPY3v+6RJwj/6pV/h3/zmZ7hy9QaPvemRnHjZtdGMtnkCRqV1rzBOHHnLRDHpBUiFCALEygon3vd+1MkHaV29RKezg0gSAg2VfpubX/kc7eefw9ZqVJZWwFMDY31xbiECap7P9c//FpWkhbUh3rkLVB99C9bzEMJlZ5lEHeqvfuSjH/OFhE6Ljf/v16i+/E0SbdEnTrL8oz9J6s8hhMrD3TP8uEP/qS9y5f/8u+x88pep3ryM7scYL6RTUUSn3kDw/j9J5b1/gtqj70QtrCJViI9CGZczwEqwwjmGuf3/b1fiKD5zL2sFypMopUjThDiOqdVqrvbIoMYpY27st0scNo9ZEdJy/vxZlpdXuXlji37Up1ZRvPnND/LDP/xBLlw47zQh6ah89DxjxJGTnfvz9ohj0uy1FjrdHptbW0jl0WwuUK9VCQKPJNP8hy98lU984lNsbkZcunSdetXj4YfOud2uoq1jbR7HhEvfE4wTx+Cb3TkiQAvptAjrUXnDw/Dmt7KTGtJOB93p4NuEmmcwV66y+cUvEF95Fn9hgWBxdcg3yloJUtH5vd/G27qKsj5BpU793e+FsIIY1Cgel47Y6adWZRrv2rN862/+DIuvPk/mL7DwgR+m9mf/PHpuiaQHc1aTXXqaa7/+f7D51FdZ6MYEiXZeh/U5NmpLVN77Hh7+kR+DYJV2JnnxyiUq1QpnT50hDEOUJ+gnCdITZKSOOMy3F3GUDZnGuB0JKQVRFLO9vc3cXIN6fQ6tnVfo+toacRxz+vRJVO7P4Ehm95wHJY694QKwtRFkqSvtKKTAk+4JL/Os72XHIZlvu95piDzHB0AURaRpyuXLVzh2bIkTq8edt7CAbjej2+1SaVT5d7/9RT7+j38ZpWoEns8fed/b+Ik/8yH8GfmF3G2M958tkYgzridpBsL1WRQlXHrxFfrtNo89dhovWePyr/4K25/7LVbaG4hUoo0lCQWdsM7xx59k5Yd+Cv/Rh9HCoLwQ09rh5v/zd0l/4+MYq4lPnuOhv//PYekMCJUvaMehfvYjH/5Ymvbxn/oiO5//DEr36FXr1D/4owSPPgrdlHDtVW5+4h9z41/8Q/jm16lGKaCJPcX2sWPU/tD7eeDP/0WWvvf7iOuLaK+K8nyWlhYJfI8XXniBTq9DWKuhfN/541kX82eFy49Qbt64AKfDYY+bJUbbYIyl1dpBKcXCwgJBEOSOVc76XwlDGo0GN9du0mrt0GjUx9bqsyMOpyFICZ4n8QMP31Mo6TKkifwX8h7uOMRxzNraGlprVpaOMz/fRHkKmZep9D1JGFaIkgiB5Llnn0NYyfGVRX7yJ36EasV35DeFL8L9hv37L/9OuNSGzz13kfW1TU6fOsm5s6egEiBrNRbe/jjLb/9ONjqa7tYWQdpHmoh62ie7conrX/6P2J01ameWEV4VrUKy9Wu0vva7YGMyBPLMw9TOPwQyN66ONgUQ3W7PErW4+j//TfwvfxZpO2wfO84jH/17iGqFG5/7Xba++Dm8qxepdXYIpU8SSjaqDeYe/4Mc/67/gvpj30G8dAohfbRxTyhPCLcdlO+139xYp9VpU2s0mJ9vUqtWczLVbq1cbtS+Atwbhz1uFiiemEUTskyTJAlJklCtVgnDcMgjtJjEFpcM2GIGXqK1Wo1ms+nyguJyh04zEaa5f1s2GBZ5Jkrfj7pzuXigUdV5RrC7F0/TlO3tbfr9PktLS7u+KxbHnC7Kw8lNQGYgTlKuXl3n1cubPPLweVaP1/A8R3yvRYz3n5O71q7/kzjl6tVr9PsRi4uLLC8tonyJ1ikyT6BujUYYidnpkH3rK7z66V+n99TvMtdrgdZEmcCEdXjoQU583w/S/ANPYjdv8MzP/fdU1y+h/QriD/8JLvzMX8bWjyHwJueRTdpta669xMt/669Qe+HrriEnT7Py4z/Nc7/xrwhfepFa3EfbDPwQXW/SPbHKw9//IcLv+S+xaoE0k1hfuEAb6XxChCs7PMj+ZLB0el02tzbZ2NzkjY88SlgJRxYpDuMCnA6HPW4WUErl49vQaneIoph6vU5YCQdPbkY0K3DbpOW/tXYOTe122+UInXNb4cO+HJMxzf2XiWM0aEvkxDH82R0ijvyUxho6nQ6bm5ssLi66+y3Ze4zRWJ0hjIt0FgjnPi7ASB9rJEnf0ulFzDd9pHQG6Wmilu83TOo/YwzGGDrtLi9cvMjC/DFOnjpJrerGlQFSYZEYPGc8RJhiiROj22voz3+WZ3/jl5E3r1DtdAnihFhCP5gne/AxLnzwj3LzN34NXniGxAq48DYe/Fu/gDh+DvCREzZkRdratNHv/x43/5e/QWXtElYorAoxnsCkbcKsAkrRqSpaC8d48I99iMZ3fxCzvEKSKRR1JAopumRSFhUz3clHBGHQGGuwxnL5yhVaOztceORR555d+u3ocdPisMfNAkI4j89er8+xY8cIwgBBHjafB1Wp3AfGSOd5K/PkNy4IKlcKhUBnmjiOXIKezQ1Wjx937tO3uL9bfT+KUeJwnw2ThMhfs4TTzATtdptr166xsrIySA+gtXZLE6vJophOa4dkZ5sgykAYlFTUm03E4jxUqi7gMi9pEUcJ/X4XP/BdxrbXGMr9Z/OgwCiKeOaZZzi2sMjpM2eoVitgS7Y0s/swEICwOWkIi5GZ0/iTDNFeZ/NTn+CVX/sl6r0WYSQRiSX1M0RdUpcedmsHHYZki6uc/vlfxD9/AWSIq+U3DJFsvWrbv/oPuf4vP85cmjjPUKnwlMBoQ2IDkqUTNL/vAyw/+f30TrwBX3lY5ZLpuJ24wklEYkRe3Ci33hY7dS4cH/fUyNfsvW6PV1+9BsDp06ep1WqkaToIuT4oDjpxbhfF9dI0pd/voZSX2yh22+Hq2uIcewyQZxqzZE4rK3KU2GKRsHusS0KT0WrtkCYJyysr+L7bRnWu7Ld3v8PE4QacEGIoD0g55HwW0FpjjOHq1atUq1WOHz+OzAPQBtqXsMh+H33zBv3ONjaNULpEaAJEtULl9CmYX8pr+kkULjN+kiREUUSlUhnYlMpLvduV252CEAKtNVJK4jjm4sWLSCk5c+YMc3Nz4BTa/MfuYVVe7rGryGFzLd8ABoFvQWUR+vqzvPrJT9D+zU9S77cQaR9rMrzcMJ4JQVytc/LH/hJzP/hDUGkCLu9uGSK+/pJ9+Wd/BvnSM/hCD6z5xhrk3Dy9d7yHN/zgnyY8/UYiv4moVYi1M2pKUgQpEoPCc772g5twbr+7Djgmr/qOmzx552mtifoRzz9/kZMnT7CwcIwwDIuDDoS7OyCKRDURAI1GY2CLGCUOi0RZg0xTlMlAWKySaCXQFNXPhkmjgHvyuFyn165dJQxDVlZWBi7Zt4OJxOGSpwzaMhwOPq6hTAtrLVEUsb29jdaa1dVVfH83rL5MHBKDvrlGcvM6No1c1biRhEQJFrGwQO38AxivPliLy5xwAbrdLjaPiSn3y+3K7U6i1+uxvr7OtWvXuHDhAs1mE601QeAmb3lpu+d95F1oBaS567jAxa94JoO4Q3LlJa7801/EfOULVNpbKBmTKoPSdVIVkr71XTzysZ9Hzp+cOC5lsrVNf2Mbq43L9uVMFSAFi0uLPPymh/BDH6RAKUmWZHg6I8CgcEFaow5ckI+4nO9G4Z6+EmEEnudRq9f4jsffThCEPPvst2i32xhj8Dw1WOPdL1DSPRU6nS7dbo9KXltEiF1LfjEJrLUII9ygT2JaV19h55UX6bx8kXjter57ofJBrxA52ZZfUkqUkgSBz9mzZ1lYWODGjZvcvLlGlmm01gPVf3aY3bmEEIPI1e3tbebn5zlz5swglL5MGKJwAssMnfUtRJwSaFzJzxF4QmKilHini2cFnt0dhTKPV2k0GtRqtYEGMns53T7SNMUaZyC/du0a3/jGN1heXuaJJ56g2Wwic1f8AuWxMRFlxcxalDH4FjwsXp78CmNQVnL2bW+jeWzRafjCJekyWqME9DbXsZvbJHvMPdG7/Lz9+s/+BZZvXMLPYudAYN1ktVIR1+fQi6vUz1/AP3+B5oOPUHvwIWxjDuMHZH6Iwccz7qlpitwXuSHQaRxySONwBlN341a5O9WZQQinsl6/fo1er8/y8jKNRmMwEG6FPYU5A7gnv6uIlqYplUoF3/dR6lbtcjsnqt+lc/klwqSLtIY0rFN96BEyv4aXqXxNWjzth1F+ymSZU2W73S6tVot6vUazOT9FO8axt8axi8NqHAUhtFoter0ec3OuVIP7cpebRvtMWLC9Hu3nX6CWREgytDToEduLtIo0CPFOniBcPgG4okmTOM9aSxzFZFkGAiqVyqGXw7OEtRatNevr64P0CYuLi/i+Py6XA4xta50LoTQWm2lsnGDa10le+gabz30LffEi7RdfQHTWqMV9/DQGEjJpUbJCGlS5fu5x3vXX/0c4cS4vajYM0e+sW/v7n+fyp/8d+tWXMZs3UZ02fr9HRUKSaYQSiDCgJwOiWpPkxCrnHns71YcvUDl9Bm/xJKJ6HB3UyKTzCLXIgQbjetOxnTPeFGpNbke1FmsLJs07Ok64evUKWltWV1fH1M1J2O+7g0Lk26uu/qp7MsRxTBiGVKsVV5Q5j17dDwaw1uDHPXqXXybst7EIOpU68w8+jPFrTvsCbG40HUWZOIQQaL2rhW3vbJOl2aAcgpK5bWlwzF7tm/T0LROH+26YOEZ/v4viaV5oiMWypNhaVkUGcdxpBte2LozBZpGLkpY+utMmevkSlThGkGCkW6uXr6+MIlE+3pmTBCv7Ewd5+5zNKCXLMoQQA4PzvdBEsiwjiiI2NzeJ43iQP8TkqQ9HsWf7cplagXPX1ykkXUy/g1lfp/Pyi2x982nWnvo8te2b1NIUP+4jdYa2GdYKrAzQlTqdSgV54jRz5x/i9B//MfwHH4HAQ+DSPZQh2lHbklqkMcitq9itq6Rf/T0ufu63ENtrVHWG7XWpBh4iSRGARmCFJKv4xAsN+iunOf6df5Sz7/9B0nqIRGKFIpuYv3BkYE4QSDHoPU+xs7PDK6+8QhCEPPjgG8iyzGV0mnDcLOEmaAZAu90ZGNrK1xU50e0HA1ih8bOEbHOdaH0DrTyq5x/GDwKXy9XKoqLL6OG3hNZuSm1tbdHr9XjggXN40pXuKfHNHhgnKiFy42ieCnCfuTiAC1h0BsgkSbh+/TqVSoX5+fmBtjgoTzHizGaNQSbb7Ny4gqo2qS+fgaTP5vMvUNcp0mpEYVgvpSeUWtKTitpDb0AtLA3C7kdRJt0CxhjiOCZJkoFGW+BOjyv3UIx56aWX0Fpz/vz5PIvc+PJjUtsnQlgyJMJo5MYVdj79r7n07z+N3L5B0N0g0F3CzCKsJFOKTHpkUtFH4DWWqK2eY/Xxd8G7vpvw9MPISg3heeC5VcQkTVN0+z3rDJlusGVZQuAZVG+b7Nqr9F98jvTpp2h942nMzauEOsHXwlWSlwasJrWKqLlK7ckP8MBP/leklQqgsHaS6+/0xFF+v7Ozw9raGs3mHCsrxyeomi6P46TzHQZaa6faQp5BXAwCxYprTEMcYF1VL6uRuYKVpgbhh7kDljvB6D0fBEW74jhma2sLz/M4dmyBME8MtDdmRBzWlVDc3t4GyLUfF+ugtauMCuOkkR8MnW22rl0mbB6jdvwUQlp6V66QbW3imRRljctwXyIOYxVJJaTxpjeCV4E99n5G5VpoHm7r2z35rbWD5cFY+2YEmy9LLl++7LxiV1ZoNpsDGU1Knzja9kkwwrgE1Fahdvq88g/+Ntmnfp16qtGhISPGsxqEQEuPSNYRKydpvvkdyLe/m8WHH8E/fRaCOliJthrplfKZ7DECRKffz81KcpDwNJMaZTVBZvLqAQmyt4198Xmuf/1rtL/5VbIbV/E6zqVVGE0S1DFPfC+P/JWPkVTnENZzKf4nYrcxo34De8Hma+b19TV2dlosLCzk5Q0VQeCPTeqDQuRLpCzTpGlCmmbUarV8QLnxPdqR0xGHMxC71CPKucVZkTtW7WL03IeGta4kQaeD7/s0m/NDxrVh7EEc5fcTho0oLYVcEWpnb1lcXKRa2fU3KdIA2lstBYTB5B7Eyir3EEsiOlcvY7a3CXWGKhYrRSLoSg3/5Cnk4iJauB2VSVeYRq5a64EbQDGB923vlCiuHccuTmlra4ulpSVWVlbGDOmTlifTtN0IQ4ZFWg+50eX5n/vLBE99CuhjrEcWVrDzTYLTj+I/+lZOPPEE/mNvBVUFAoTyQKl8h8/tvBQtKelhg78Gn3T78aB1Bos0rt6GsAKdp+8XWLwsw9MJ6AySGGv6dJ97hld+69P0Lj9PWoE3/PBPs/qe7yVTc2BdlrBb4SAd5NbPGikVN25cZ319g0cffRSlVO65Of25yiiC0JIkQUpBGFYGuxkFaxyWOExet0Va6XZPTB6fM2LPGD337cHtZFhruHnzJgsLx8ZUcodbE8foEeCWJgi3dbixscHq6qoreJTbXYplyZ75Q0sQwrmV29zm5Wwq1sV0ZTHJK5dJ19fwlCNaqSRerY5YXoZjxzDKx6JcHeIJl5tWrrZk/FZKDch2VB4HgcnLMzz33HOcO3fO5aXNtZsycRQYvdbUbRfWZUOPUlq/8+95+pf+N7J0mxOPP8HZ9zxJ5c1vh7COwIXWi0rN6b5aFU5GWAWZhBRXbtJ5xhRew+OjYIg4LK5wjLLu5y6lYN6Z+b6w0/Ak1mZ4aYTqdbC9DlYkyKXTZH6AJXCXHMhBsLtEKf7PB8oBOqZ40pU7eWdnm42NDd7w4INUK1V8T5Fmrs7INLDWkmUpupRIxu02WJwB0QWcTerDaYjD2bedq7REDVz8RvO2TjtIpoHNS6dYa0lTpxGkacrc3ByVSgXPK5IeT0Ec+e5YAa2102jaber1OrUi67obGA7DXbwvBtezpTFiRe4waF3lsyjCZCnWWue/4nsQeOAptPRwPrmTL3dQuRrjopbjKHYkdaskyiOw+ZKk1WrlpL3gPIlz+9iofPfDtG0f9FBmsUmE2bwOQiOac4iwigmqmJzQi1AQi0CYUh0Y561OhiNuN15zEh+DGCaOw0CQV4MS+fTICybttoicsfJB6qxcg12VSW7P06LoJGM0V69eo1qtMj8/P3UnFXYMt5Xp4kFk7r5cdNp+55iGOBycgASFAW9c5NMOksPAhfe7mibW2kEFe69Yy5Yw+l7mrJllGWma0um4LNrHjh1DirwEZt7/o8dOg4nHFOOp7CZZgrDW2WEEGCEHye0mjaTDytXmdptil0NKie/5o00ZwI1DZ3Td3tomiiJOnT5FJawgp9h9m4Rp2z5E7YM4lVyG+XXLtXKK3w/kVb6MUwDLb/Mf5J1SfH67xDEdJhBHjskZDQ+GwHdaRrvd5uWXL3Hq1KmB84xTCYdvuuiQLNPUqiFpNp7ZebbE4bDfuaYdJIdFYQMCy9raGpVKlWbTLV/K7drVAJzaIoAsTen1emRpRmPOlTXwPA+tndwOsjQZxWFkIix54mzyjHIjE6GEvc5xK1izW+c2SRKyLBtUoBttszUWbTSbm5tcv36d8w+cZ645h9Z6H/vSrTFt28esO6XjCq3fbdc6jMmrfJmx7ii+NKUj7EGIQ5TOOq7ijqP8e+4ocZShdcb29jabm5ssLS3nPgSuQLPrcOdrIPL0dNxi8O6H1xJxKLVrtS+ejO3ODr7nMd9026ZpluF5nnu+GI2vPDY2NzDaUK1WqddczZVJOAxpcAuZ7AVnTy+IQ4xPhBIOK9eiXcXx1lqyNMNYMxT/YvJ6Qmtra6yurjI3N15l7zD3yAHaPkYcZeRfDc86h+mIgwlHfhsSB3lHaZ1x/foNtNY0m3PU6/X86brbqYUx77Ad+1oljgLGpLTbbfpRRKPu3LNFbkfqdDvEUcRcvUG9Xh/eVp2Ae0IcAhdUeYeJo6x9Fk5kQgg6nQ7tdpswDFleXnakm+8gFXIsn+ugmLbt+/XLHSOO8Wr1BSZ1w94YF86kpt5ZFG0oDFzkwr9y5QpKKZaXlwiCgDAM6fX6t205Pyhx3ClM0/6yLWn3905O1lp6vR47Ozs0Gg06nQ7NZpNqtYIn1YTdmMNhmnbeLygTR4E0TZFC0uv3uHHjBr7vc+LEiYFNrSCN+xG3367yUmWk6PQwDjZYxht2b4mj+N9aSxj4dHt9tra2yLKMM2fOONYs1uZjbZ8O3w7EQW7Ys9awtr6OMQZPeczPN/F9H0+Or+kPi1md525glDhsXmbylVdeoV6vs7CwMIjiLgyobjzcn/d4++26HeIoLC0TnLbGG3b3iaOMosOLDrX5Dky/36PVauN5ivn5BYLAx9rid6Nn2R/j93xvME079iKOJHHZ1tMspV6v4ytn9Ox2u0gladTqeHl9mGmusx9u9/i7iWLM2HxHaWNjgzRNmZ+fp9FoDJGEznNoFMfdj7j9dlnK65gDEEfu1EHu1DH67VDDiu/Hf3e3sJfaqJQkTZ0BtdVqcfLkSWq1ivPj3OOY+x3TtHlXu3LObFoborhHHMc0Gg085co+KtyWcbGWb7fbNBoNgjw+6LC2DKZs5/2C4kHTarVYX1/n+PHjTk4TXMMLkrmfMWvZH4A49odr2DRG0/sHhUV8c3OTc+fOUavV7inZHRbTDIpicBujieKIXq9HtVKlWq0MnNwEuOrz5RIP2hDFEd1ul2azORbodxAc9ri7icIvpd/vc+XKFVZWVmg0GkOh7qMkcUQc+0Lkr1G4JcmsG3Y3EccRrVabNE1ZXl4mCHykdEmEKAl9moTB9wL7yd45tDnnpH4/Io4jgiCkWquicmc3l9zWoSCNQqkc+AHkMTBpmlKtVp1HpVIHmjD7tfNeoHCKKvZlLJZ+r8/65gaeUiwsHKMahsg8tSF7kMZrAbNu5wGIo4yyNlIijrIbdeGffp/DPYUNUgqyTHP9+nXm55tUq7VBurYCr0XiEEKSphH9KALsoKK7sC5DNnY64qC0lm+1WiilCMPwQA5O+7XzXmDgTWktSRyz027T7XQ5feoUfuA0jCLf+hFxDOMAxLEXEby2iaOMgkQKY5jv+xw/vpI/tacU0z3ApEFhrcWTgu1WG2My5hcWnEt9/ny1JVIYEMdQ0p5x2Dz+xVqX6i6KI4QQbolnXQCaMXna7Qku6KPv7wVsYccaLN0MN9fW6HTaPHDuAaTndpEG3rClUTxKGq8lzFr2R8QxAcUAiaKIVqtFrVZjft7lTrgfMdoumyeLSZLE1XYJ/JwkXBBj4TA0UNXLGsc+o6GsfRQyKjJZFRrIIGEP405ho+28l9Bas9XaIer3qdfr1OsNEOyG1ecyOiKOydiHOCZdaNJn337EUQhZCFdFbWtri36/z+LiopscM3AnniWkFHnYv8nziaT4fkAlLLaaixhHF5o+II78eJfOsfh78OcYysRBPpFs7npd5GL1lOeWLyWNY/T/u4Viohc2isKvJ0kSNjc3CasV5pvzCClQUjlFadDEvM2lUXxEHLvYhzim3VW5f4hjlsIZtWdordnY2KDfjzh16tQgA/t4JrK7i2IwW2tpt3eoVKpUKi6fCAfoxVkhjmP6/T7Nuaarel8yLM6yf6ZB+boFYTgb1vwg+1bx/bc7Zn2PR8SxB0aJwxi3lelS5O1gjGZ19QS+P76vfzehtaHb7eB5PtVqOKhLK4Vbx0/bi7NCoYXEcYwxLjjuXjtHuZo016jVas4nZVD4+4g4DovpiaNMBENJaErEcY8xyzaMEodbChSisvT7EZ1O221tVqsEYeAMhHluUjdvZ9eeAgLItMFaQ5KkgM39T0CIXTd6934Ccdjder6jWchmDa01cRwjpczztt4dAilIocgfEsfxUBDaKO50e+4HzPoex8bVnhBF8pQ7O9heGxBUKhWWlpYRQnDj5g163R7gqq7dUQgxyPMZBP7YlvEtkactvNOkQV6Iu1qtEgQBvV6PKIoGdoZJE3hWsHk9l0uXLhEEAYuLedGhOzCBXq/YR+OYJOBJn1HSOPY41V3CLAfFqMZBrnUMv3falta7dUSOH3f1XQsUtpDDQghn+HQZpjRp6hLKFOn/ynL3BnE5+bH5y+YWT5fBYtc4erdQlE9IkxRtXF6UaqU6ZEC9XRRklCTJINS9VqsdEUaOWd//PsQxCcXFxxvhGnb4CTILzFI4k4hjFG6wMliW9Hp9Wq0dPM9VSy8S+Hre4QyoQgjSNMtT+Lsnte8H+L6rG1t+agsEfj5JygQn7O6SxAo3gYulyt0ikCK5cTG5C1+Zwvu0CEQ8DMrna7fbADSbLrK3MMwWS5fXM2Z9/wckjgLjK5zXM3G4XKVu8GdZRr8f0Wrt4PsBzeZc7htwsBB8RwpioN4HgSOMwhltVN0XQuAJhRhJrDyJOAq4Ytd3HsXELV42DyCL4xgA3/cHBHIQFOcp0iWsrq4OkVAhnyPimO3c4GDEIfLXZLweiWM/ZJmLD9ne3sb3febnm7n8HNnsV+vVGLcrwWBSyQFBsc99qrxodRn3A3Ew0uaCPCjVNLF52YBJ0adlFMdlWcbOzg7GmEHw3aSt8TK5vp4xOi5uF0fEsQdulzjICQCg2+0Sx9HAx8L3J1v3yY9J0zTfhXBtsNYZXfcijmInRQ5sHqXv7nPiIL+/LM1IsxRgUNN1EpIkod/vE8cxlUqFWrWGl8tzksayl5xfb9hLnofFPsQx3gmTYfl23I49KG5FNFobOu022hjq9fogPN1Tkkw7o2dRDkApZ8PY65y797mbTGZoYlIU0rm/cKv+saUyDEopt2NU3EZeAKrValGpVAZZ7G91ziM4zFpOR8QxI+w1yUeRphm9Xo9ut8Py8jJKeXl1ut0kysVDcq9zjhLH6H2/VomjgDEGnde88X0fay1bW1vUarW8oNT+y5kjjGNa2U+LgxHHIJyyfMgRcbDPJC/DLTckYImiiHa7g1KKWq1GGIY5CbjfOdV78jn3Io6iW1w93j269R5i2v6xueE3TdNBEe2yjMjPNe35jjC97KfFEXHMCHtN8mEIjHFPUmud4TPLMra3t6jV6tRqbm0vcl+MvW5nL+KQhaoieE0Th9Y6J9b2wHnL5LVwyB3LCkx7ztc7Zi2ngxHHRBwRB1MQhzHOOclt3boi2SrPX2GtJYpiOp0O9Xo9D1Lb+3zFfQrnQZW/N1P32L3Cfv1TGDGttYNAtCJUv5BRuWLcfuc6wjhmLa99iGMUoniUTUQxeO8lZi2cg2CviV7srNgRX4JJvzfGeaBGUUwQBDQarohUoboXEMLV6BU4rWQ078X9ikn9o/MKe0Vh7EqlQqVSGWgZxXGjuyOTznWEvTFreR2AOMoYf7YdEcfkax+EOAqkaUoURVgLtVoVNVKvdDJxlGUv9iX5e4VJ/ZOmKd1uF2vt2E5JQRbF+0kEcoTpMEn2t4MDEMf+g/GIOPa+9qTAt/1+T8lA2Ov1EEK6J3Hgk2TaeVladpeJ+bkm5Qm9n2BzX4ssy1BKsb29jVKKer0+0XmrjNG+PSKQg2FUfreLI+KYEfYjgsMQRwFrLWmaufB0IWjM1RHitUscAJ1OB2sttWptkBT4VkQw2re3+v0RhjEqv9vFPsQx6UKTPsMNXiHygXzvMGvhHAT7EcGkQX6QthYTq9+P0FnqcoBUKgOHD2csvP+IY3R5VixLwjAcZCkrvp8kozJG5XWr3x9hGKPyu13sQxzjdozJyJ96M27YYXAv27AfcdwOyvckhMTk0bLtdpvFpUWkkHl5xsku1/cSolTdvdfrUau5khOFwfcIdw+znhtHxDEj3BXiKALhLRhriOMYayxhJcRTrnTjvZTBKFykcB/f912wnlSDrdQj4ri7mPW4mJ44XmepAw+Ku0IcQua2jV0Y4whESEEYhHlukN2uuiuw7npSOr+UouaK1voomc59glnLfnri2BNHxMEdJY5dO4AQAmH06E8QUhDHMVE/cuUZfe+uL1tsnhsjy5whd25uDvIiTQXuZf+83jFr2e9DHJMuNOkzB9euPU51lzBr4RwEsyaOMlnsfuZC5x0cYbsweWccBZdIKElSpJS7EaZ30Jho8spt2jg38XIQ2qR7OMK9waz7YB/imITi4uONcA072o6dFYYnnXCBa6IUj5ITxzCcFUQbQ5IkGGMHCW7uhGzKUaxCiEGqgCPCuP8w674Y1mfL6d3yj4aH5qTBem8gRL6YL71eK67XB0OhTRSdX/TBKIG49xYXVesHHpWKT5IkJEmCnWFmcZvn+SyqtwV+QKVSmfngPML9iyGNo9zxZuDwVc4Z5cbnpNVzcexgcApXbvBOwFqLLBLziuKfXQwF795R7E7YO6lxDIhDCmSe7GcMwkCe0atMENaKQX7PYneDIlPYAZpcZCoXQtDr9XY1mZGTlMn7iEjuH8y6LwbEUQw2a90ASTOLyDNTj1501LJfaCrgivY6jcVRz51A8fS0WKwQYJ2GVFxP3C3yKOW9KBdCcu9dBq9R2U2LWRHHgOYtpFmKMWaQNOggGbRsnp3LWkvgBxjrbBujxx8Rx/2JWfeF6PQia/JBb40ljiP3d+GVODIhHCZ95iAVVMIQrC09jfYY7IeARZBmrsbIKCYJZ9JndwLl61hrUVISeH7+5cHv3yXjKc5byrkx9Ktd4hqGO6YMW3J718YlUgYGdom9ljE2T6gTRRFzjTkokcOkh8p+OMhvjzBbzFr2w8RhLXF0+8RRrVSwprxUOfjE2QvWClKdDQb+rTBrge2F0evcLnGMLn1mSRzgFqCFV6fn5RXmS8iyDCxk2hWAEkIMLnVYW9KojI5w9zBr2e/NAEKCkFghhl+3WIDs/+1sMPZ0tG65MvZiwmezfN0hDPlgFLbfQrZD1y+/9ocoGb6FcHVgPM8jDEOklGit0VpjjVuSaK0x1uROZbt1Y2Y9AI/w2sQexCEQOOIYHpyFW+J9hLEJVHrt8Z1L5Tv++eFes8dQ4eiRlg5j72/GsEezC3+PYpek1+8Nkuv4nj/sIj7lpY7w7Y89iGN/7PfAnaQ430+wt2j//YLB032UqIXdfc1I2hZACJRSg23VgjSOcIRJkOS7JMWryCxFaYzuhVHN/W5NxqKde82b0WaY8gelv40Yfk063b7nKqEsw0H7poIZvISwKCmQef5QCUg7CG2bAFs6fjoUR2hrBy+Tb297QQBSovICR67Qtcv3eYQjlPH/A26eeWEczGXdAAAAAElFTkSuQmCC;" parent="9l4Qxd2OkfuQ6Kxrnip4-20" vertex="1">
          <mxGeometry x="24" y="30" width="81.79" height="88.75" as="geometry" />
        </mxCell>
        <mxCell id="9l4Qxd2OkfuQ6Kxrnip4-28" style="edgeStyle=orthogonalEdgeStyle;rounded=0;orthogonalLoop=1;jettySize=auto;html=1;exitX=1;exitY=0.5;exitDx=0;exitDy=0;entryX=0;entryY=0.5;entryDx=0;entryDy=0;" parent="9l4Qxd2OkfuQ6Kxrnip4-8" source="9l4Qxd2OkfuQ6Kxrnip4-27" target="9l4Qxd2OkfuQ6Kxrnip4-20" edge="1">
          <mxGeometry relative="1" as="geometry" />
        </mxCell>
        <mxCell id="9l4Qxd2OkfuQ6Kxrnip4-27" value="Embedding" style="swimlane;whiteSpace=wrap;html=1;rounded=1;glass=0;" parent="9l4Qxd2OkfuQ6Kxrnip4-8" vertex="1">
          <mxGeometry x="80" y="197.5" width="110" height="95" as="geometry">
            <mxRectangle x="80" y="197.5" width="100" height="30" as="alternateBounds" />
          </mxGeometry>
        </mxCell>
        <mxCell id="9l4Qxd2OkfuQ6Kxrnip4-30" value="" style="editableCssRules=.*;html=1;shape=image;verticalLabelPosition=bottom;labelBackgroundColor=#ffffff;verticalAlign=top;aspect=fixed;imageAspect=0;image=data:image/svg+xml,PHN2ZyB4bWxucz0iaHR0cDovL3d3dy53My5vcmcvMjAwMC9zdmciIHhtbG5zOnY9Imh0dHBzOi8vdmVjdGEuaW8vbmFubyIgd2lkdGg9IjE2Ljk3OTk5OTU0MjIzNjMyOCIgaGVpZ2h0PSIyMCIgdmlld0JveD0iMCAwIDE2Ljk3OTk5OTU0MjIzNjMyOCAyMCI+JiN4YTsJPHN0eWxlIHR5cGU9InRleHQvY3NzIj4mI3hhOwkuc3Qwe2ZpbGw6IzY2OWRmNjt9JiN4YTsJLnN0MXtmaWxsOiM0Mjg1ZjQ7fSYjeGE7CS5zdDJ7ZmlsbDojYWVjYmZhO30mI3hhOwk8L3N0eWxlPiYjeGE7CTxnIGNsYXNzPSJzdDAiPiYjeGE7CQk8cGF0aCBkPSJNOC40OSAxMC4yOUwuMjQgNS4zNSA4LjQ5LjU4bDguMjQgNC42N3pNMS43NiA1LjM2bDYuNzIgNCA2LjcyLTQuMTEtNi43MS0zLjc4eiIvPiYjeGE7CQk8cGF0aCBkPSJNOC40OSAxOS40NEwuMjEgMTMuODkgOC40OSA5LjNsOC4xNSA0LjY0em0tNi44LTUuNWw2LjggNC41NiA2LjctNC41LTYuNy0zLjgyeiIvPiYjeGE7CTwvZz4mI3hhOwk8ZyBjbGFzcz0ic3QxIj4mI3hhOwkJPHBhdGggZD0iTS42MTMgNS41MDJsLjY3NS0uMzcxIDcuNDc3IDEzLjYtLjY3NS4zNzF6Ii8+JiN4YTsJCTxwYXRoIGQ9Ik04LjE5NCAxOC44MjZsNy4zMDEtMTMuNTU5LjY3OC4zNjUtNy4zMDEgMTMuNTU5ek0uNzE2IDEzLjY4N0w4LjA5Ni45MDRsLjY2Ny4zODUtNy4zOCAxMi43ODN6Ii8+JiN4YTsJCTxwYXRoIGQ9Ik04LjE5NCAxLjIxNGwuNjY5LS4zODEgNy40MDUgMTIuOTg3LS42NjkuMzgxeiIvPiYjeGE7CQk8cGF0aCBkPSJNOC4xMy45NmguNzdWMTguOWgtLjc3ek0uNTUgNS40M2guNzd2OC42NkguNTV6bTE0Ljk3LS4wOWguNzdWMTRoLS43N3oiLz4mI3hhOwk8L2c+JiN4YTsJPGcgY2xhc3M9InN0MiI+JiN4YTsJCTxjaXJjbGUgY3g9IjguNTIiIGN5PSIxLjA3IiByPSIxLjA3Ii8+JiN4YTsJCTxjaXJjbGUgY3g9IjE1LjkxIiBjeT0iNS4zNCIgcj0iMS4wNyIvPiYjeGE7CQk8Y2lyY2xlIGN4PSIxLjA3IiBjeT0iNS4zNCIgcj0iMS4wNyIvPiYjeGE7CQk8Y2lyY2xlIGN4PSI4LjUyIiBjeT0iOS45MyIgcj0iMS42OCIvPiYjeGE7CQk8Y2lyY2xlIGN4PSIxNS45MSIgY3k9IjEzLjk0IiByPSIxLjA3Ii8+JiN4YTsJCTxjaXJjbGUgY3g9IjEuMDciIGN5PSIxMy45NCIgcj0iMS4wNyIvPiYjeGE7CQk8Y2lyY2xlIGN4PSI4LjUyIiBjeT0iMTguOTMiIHI9IjEuMDciLz4mI3hhOwkJPHBhdGggZD0iTTguNDkgMTAuMjlMLjI0IDUuMzUgOC40OS41OGw4LjI0IDQuNjd6TTEuNzYgNS4zNmw2LjcyIDQgNi43Mi00LjExLTYuNzEtMy43OHoiLz4mI3hhOwkJPHBhdGggZD0iTTguNDkgMTkuNDRMLjIxIDEzLjg5IDguNDkgOS4zbDguMTUgNC42NHptLTYuOC01LjVsNi44IDQuNTYgNi43LTQuNS02LjctMy44MnoiLz4mI3hhOwkJPHBhdGggZD0iTS42MTMgNS41MDJsLjY3NS0uMzcxIDcuNDc3IDEzLjYtLjY3NS4zNzF6Ii8+JiN4YTsJCTxwYXRoIGQ9Ik04LjE5NCAxOC44MjZsNy4zMDEtMTMuNTU5LjY3OC4zNjUtNy4zMDEgMTMuNTU5ek0uNzE2IDEzLjY4N0w4LjA5Ni45MDRsLjY2Ny4zODUtNy4zOCAxMi43ODN6Ii8+JiN4YTsJCTxwYXRoIGQ9Ik04LjE5NCAxLjIxNGwuNjY5LS4zODEgNy40MDUgMTIuOTg3LS42NjkuMzgxeiIvPiYjeGE7CQk8cGF0aCBkPSJNOC4xMy45NmguNzdWMTguOWgtLjc3ek0uNTUgNS40M2guNzd2OC42NkguNTV6bTE0Ljk3LS4wOWguNzdWMTRoLS43N3oiLz4mI3hhOwk8L2c+JiN4YTsJPGcgY2xhc3M9InN0MCI+JiN4YTsJCTxjaXJjbGUgY3g9IjguNTIiIGN5PSIxLjA3IiByPSIxLjA3Ii8+JiN4YTsJCTxjaXJjbGUgY3g9IjE1LjkxIiBjeT0iNS4zNCIgcj0iMS4wNyIvPiYjeGE7CQk8Y2lyY2xlIGN4PSIxLjA3IiBjeT0iNS4zNCIgcj0iMS4wNyIvPiYjeGE7CQk8Y2lyY2xlIGN4PSI4LjUyIiBjeT0iOS45MyIgcj0iMS42OCIvPiYjeGE7CQk8Y2lyY2xlIGN4PSIxNS45MSIgY3k9IjEzLjk0IiByPSIxLjA3Ii8+JiN4YTsJCTxjaXJjbGUgY3g9IjEuMDciIGN5PSIxMy45NCIgcj0iMS4wNyIvPiYjeGE7CQk8Y2lyY2xlIGN4PSI4LjUyIiBjeT0iMTguOTMiIHI9IjEuMDciLz4mI3hhOwk8L2c+JiN4YTs8L3N2Zz4=;" parent="9l4Qxd2OkfuQ6Kxrnip4-27" vertex="1">
          <mxGeometry x="31.5" y="32.36" width="47" height="55.29" as="geometry" />
        </mxCell>
        <mxCell id="9l4Qxd2OkfuQ6Kxrnip4-126" value="context" style="whiteSpace=wrap;html=1;fontStyle=1;startSize=23;rounded=1;glass=0;dashed=1;dashPattern=1 4;" parent="9l4Qxd2OkfuQ6Kxrnip4-8" vertex="1">
          <mxGeometry x="440" y="328.75" width="80" height="32.5" as="geometry" />
        </mxCell>
        <mxCell id="9l4Qxd2OkfuQ6Kxrnip4-128" style="edgeStyle=orthogonalEdgeStyle;rounded=0;orthogonalLoop=1;jettySize=auto;html=1;exitX=1;exitY=0.5;exitDx=0;exitDy=0;entryX=0;entryY=0.5;entryDx=0;entryDy=0;entryPerimeter=0;" parent="9l4Qxd2OkfuQ6Kxrnip4-8" source="9l4Qxd2OkfuQ6Kxrnip4-126" target="OEbAICJhkx0JvxfDaXoY-2" edge="1">
          <mxGeometry relative="1" as="geometry" />
        </mxCell>
        <mxCell id="9l4Qxd2OkfuQ6Kxrnip4-26" style="edgeStyle=orthogonalEdgeStyle;rounded=0;orthogonalLoop=1;jettySize=auto;html=1;exitX=0;exitY=0;exitDx=70;exitDy=20;exitPerimeter=0;entryX=0;entryY=0.5;entryDx=0;entryDy=0;" parent="9l4Qxd2OkfuQ6Kxrnip4-8" edge="1">
          <mxGeometry relative="1" as="geometry">
            <mxPoint x="-121" y="181.25" as="sourcePoint" />
            <mxPoint x="627" y="181.25" as="targetPoint" />
            <Array as="points">
              <mxPoint x="20" y="181.25" />
              <mxPoint x="20" y="101.25" />
              <mxPoint x="570" y="101.25" />
              <mxPoint x="570" y="181.25" />
            </Array>
          </mxGeometry>
        </mxCell>
        <mxCell id="9l4Qxd2OkfuQ6Kxrnip4-17" style="edgeStyle=orthogonalEdgeStyle;rounded=0;orthogonalLoop=1;jettySize=auto;html=1;exitX=0;exitY=0;exitDx=70;exitDy=20;exitPerimeter=0;entryX=0;entryY=0.5;entryDx=0;entryDy=0;" parent="1" source="9l4Qxd2OkfuQ6Kxrnip4-2" target="9l4Qxd2OkfuQ6Kxrnip4-14" edge="1">
          <mxGeometry relative="1" as="geometry">
            <Array as="points">
              <mxPoint x="670" y="410" />
              <mxPoint x="670" y="575" />
            </Array>
          </mxGeometry>
        </mxCell>
        <mxCell id="9l4Qxd2OkfuQ6Kxrnip4-22" style="edgeStyle=orthogonalEdgeStyle;rounded=0;orthogonalLoop=1;jettySize=auto;html=1;exitX=0;exitY=0.5;exitDx=0;exitDy=0;entryX=0;entryY=0;entryDx=0;entryDy=60;entryPerimeter=0;" parent="1" source="OEbAICJhkx0JvxfDaXoY-10" target="9l4Qxd2OkfuQ6Kxrnip4-1" edge="1">
          <mxGeometry relative="1" as="geometry" />
        </mxCell>
        <mxCell id="9l4Qxd2OkfuQ6Kxrnip4-29" style="edgeStyle=orthogonalEdgeStyle;rounded=0;orthogonalLoop=1;jettySize=auto;html=1;exitX=0;exitY=0;exitDx=70;exitDy=20;exitPerimeter=0;entryX=0;entryY=0.5;entryDx=0;entryDy=0;" parent="1" source="9l4Qxd2OkfuQ6Kxrnip4-2" target="9l4Qxd2OkfuQ6Kxrnip4-27" edge="1">
          <mxGeometry relative="1" as="geometry">
            <Array as="points">
              <mxPoint x="670" y="410" />
              <mxPoint x="670" y="475" />
            </Array>
          </mxGeometry>
        </mxCell>
        <mxCell id="9l4Qxd2OkfuQ6Kxrnip4-138" value="" style="swimlane;startSize=0;strokeWidth=0;strokeColor=none;" parent="1" vertex="1">
          <mxGeometry x="310" y="190" width="1150" height="710" as="geometry" />
        </mxCell>
        <mxCell id="9l4Qxd2OkfuQ6Kxrnip4-139" value="legal cases" style="whiteSpace=wrap;html=1;fontStyle=1;startSize=23;rounded=1;glass=0;dashed=1;dashPattern=1 4;" parent="9l4Qxd2OkfuQ6Kxrnip4-138" vertex="1">
          <mxGeometry x="780" y="300" width="80" height="32.5" as="geometry" />
        </mxCell>
        <mxCell id="9l4Qxd2OkfuQ6Kxrnip4-23" value="laws" style="whiteSpace=wrap;html=1;fontStyle=1;startSize=23;rounded=1;glass=0;dashed=1;dashPattern=1 4;" parent="9l4Qxd2OkfuQ6Kxrnip4-138" vertex="1">
          <mxGeometry x="780" y="243.75" width="80" height="32.5" as="geometry" />
        </mxCell>
        <mxCell id="9l4Qxd2OkfuQ6Kxrnip4-14" value="DGFA-LJP" style="swimlane;whiteSpace=wrap;html=1;rounded=1;glass=0;" parent="9l4Qxd2OkfuQ6Kxrnip4-138" vertex="1">
          <mxGeometry x="498.5" y="340" width="96" height="90" as="geometry" />
        </mxCell>
        <mxCell id="9l4Qxd2OkfuQ6Kxrnip4-19" value="" style="image;aspect=fixed;perimeter=ellipsePerimeter;html=1;align=center;shadow=0;dashed=0;fontColor=#4277BB;labelBackgroundColor=default;fontSize=12;spacingTop=3;image=img/lib/ibm/miscellaneous/cognitive_services.svg;" parent="9l4Qxd2OkfuQ6Kxrnip4-14" vertex="1">
          <mxGeometry x="18" y="25" width="60" height="60" as="geometry" />
        </mxCell>
        <mxCell id="9l4Qxd2OkfuQ6Kxrnip4-24" value="" style="edgeStyle=orthogonalEdgeStyle;rounded=0;orthogonalLoop=1;jettySize=auto;html=1;" parent="1" source="9l4Qxd2OkfuQ6Kxrnip4-20" target="9l4Qxd2OkfuQ6Kxrnip4-23" edge="1">
          <mxGeometry relative="1" as="geometry" />
        </mxCell>
        <mxCell id="9l4Qxd2OkfuQ6Kxrnip4-25" style="edgeStyle=orthogonalEdgeStyle;rounded=0;orthogonalLoop=1;jettySize=auto;html=1;exitX=1;exitY=0.5;exitDx=0;exitDy=0;entryX=0;entryY=0.5;entryDx=0;entryDy=0;entryPerimeter=0;" parent="1" source="9l4Qxd2OkfuQ6Kxrnip4-23" target="OEbAICJhkx0JvxfDaXoY-2" edge="1">
          <mxGeometry relative="1" as="geometry" />
        </mxCell>
        <mxCell id="9l4Qxd2OkfuQ6Kxrnip4-141" style="edgeStyle=orthogonalEdgeStyle;rounded=0;orthogonalLoop=1;jettySize=auto;html=1;exitX=1;exitY=0.5;exitDx=0;exitDy=0;entryX=0;entryY=0.5;entryDx=0;entryDy=0;" parent="1" source="9l4Qxd2OkfuQ6Kxrnip4-20" target="9l4Qxd2OkfuQ6Kxrnip4-139" edge="1">
          <mxGeometry relative="1" as="geometry" />
        </mxCell>
        <mxCell id="9l4Qxd2OkfuQ6Kxrnip4-142" style="edgeStyle=orthogonalEdgeStyle;rounded=0;orthogonalLoop=1;jettySize=auto;html=1;exitX=1;exitY=0.5;exitDx=0;exitDy=0;entryX=0;entryY=0.5;entryDx=0;entryDy=0;entryPerimeter=0;" parent="1" source="9l4Qxd2OkfuQ6Kxrnip4-139" target="OEbAICJhkx0JvxfDaXoY-2" edge="1">
          <mxGeometry relative="1" as="geometry" />
        </mxCell>
        <mxCell id="9l4Qxd2OkfuQ6Kxrnip4-127" style="edgeStyle=orthogonalEdgeStyle;rounded=0;orthogonalLoop=1;jettySize=auto;html=1;exitX=1;exitY=0.5;exitDx=0;exitDy=0;" parent="1" source="9l4Qxd2OkfuQ6Kxrnip4-14" target="9l4Qxd2OkfuQ6Kxrnip4-126" edge="1">
          <mxGeometry relative="1" as="geometry" />
        </mxCell>
      </root>
    </mxGraphModel>
  </diagram>
</mxfile>
